<svg xmlns="http://www.w3.org/2000/svg" xml:space="preserve" viewBox="0 0 435.25 461.23"><path fill="#BCBCBC" d="M418.17 246.24c-16.02-3.41-31.29-10.48-45.8-18.56.05-1.73.1-3.45.17-5.16.65-17.99 2.17-36.15 5.14-53.93 1.1-6.55-7.85-7.9-9.83-1.93-5.29 15.92-13.67 30.59-23.7 44.02-7.58-4.85-15.02-9.93-22.26-15.25 2.32-5.01 4.81-9.9 7.5-14.63 0 0 17.33-24.17 2.83-39.67 0 0-11-14.5-35-1 0 0-60 37.5-79 50 0 0 17.5-65.33 16.5-85 0 0 3-23.67-14.5-20.5 0 0-20.17 1.83-20.5 20.5 0 0 .54 31.24-10.93 70.79-15.42-23.4-30.66-43.86-44.07-60.68-39.08-48.98-71.99-78.99-72.38-79.34-9.58-7.88-18.4-10.79-26.23-8.61-10.84 3.01-15.3 14.6-15.47 15.07-.07.17-.11.33-.18.49-1.3 1.64-2.19 3.67-2.64 6.08-1.72 9.23 3.5 20.82 4.03 21.96 18.05 45.05 15.53 76.46 15.37 78.27-1.81 9.38-1.11 17.09 2.05 22.91 3.27 6.02 8.05 7.82 8.99 8.13 2.84 1.4 5.47 1.7 7.83.89 9.71-3.35 11.23-24.44 11.28-25.34 1.32-17.2.77-32.27-.78-45.22a624.43 624.43 0 0 1 56.88 60.26c-.7.4-1.3 1.03-1.72 1.92-6.13 13.14-13.41 25.82-21.09 38.1-.86 1.38-1.74 2.76-2.62 4.15-13.15-1.24-26.35-3.52-38.3-8.45-5.78-2.39-9.97 5.01-4.7 8.54 9.78 6.55 19.4 13.37 28.88 20.35-9.78 12.87-20.99 24.73-34.34 33.32-1.21.78-1.88 1.78-2.15 2.82-10.88 1.75-23.82 4.64-32.89 8.83-8.15 1.86-11.47 9.58-11.51 9.68-.24.64-.4 1.22-.51 1.8-1.87 9.47 9.82 14.2 11.06 14.68 29.4 14.98 45.96 25.38 46.13 25.48 16.26 11.71 21.78 8.47 22.89 7.5 2.68-2.05 4.31-4.48 4.85-7.23 1.85-9.35-9.67-18.79-10.16-19.18-4.02-3.64-7.85-6.88-11.49-9.76 8.67 0 23.53.36 40.62 2.7 27.3 3.4 60.23 11.83 83.9 23.86.2-.02 20.98 10.91 38.64 16 .01-.01.58.17 1.52.38 1.23.57 2.48.97 3.75 1.18.7.12 1.41.17 2.12.17 4.47 0 7.4-2.3 8.02-2.83.08-.06.15-.13.23-.19 1.03-.64 2.01-1.45 2.9-2.47.35-.48.71-.98 1.04-1.48-.63 25.93.17 55.36 3.16 88.47 0 0 1.33 27 19.67 25.67 0 0 1.21-.07 2.94-.66 1.55-.03 3.69-.43 5.96-1.98 4.95-3.39 8.34-10.64 10.05-21.5.45-1.94 10.51-43.81 54.11-111.7.05-.07 2.09-3.09 3.02-7.4.92-4.25.93-10.5-4.29-16.13-.15-.16-11.79-11.74-25.57 3.86l-.25.34c-1.19 1.95-18.69 30.72-34.56 63.42-.17-28.97 1.56-64.62 8.25-99.89 1.27.94 2.93 1.26 4.62.4 9.38-2.74 19.3-3.7 28.99-4.62 2.7-.25 5.39-.48 8.09-.68 9.29 17.6 18.56 35.2 27.81 52.81 1.59 3.04 3.19 6.07 4.78 9.11 2.65 5.05 11.08.77 8.89-4.44-7.77-18.47-10.83-38.74-11.75-59.02 15.02-.51 30.06-.74 45.09-.57 5.83.07 5.98-8.77.62-9.91zm-131.46-57.1s-21.28 39.39-26.97 125.12c-11.14-30.45-24.69-59.2-39.16-85.61 20.4-11.69 47.8-27.67 66.13-39.51zm-208.1 80.57c11.16-5.88 22.32-11.76 33.48-17.62.82-.43 1.64-.86 2.47-1.29 8.19 6.47 16.02 13.41 22.41 21.32 1.66 2.05 5.16 1.59 6.84-.11 1.25-1.07 1.91-2.76 1.19-4.83-3.24-9.26-5.31-19.08-6.81-28.75 2.51-1.31 5.02-2.63 7.54-3.93 3.94-2.05 7.89-4.09 11.84-6.12 1.21-.62 2.41-1.23 3.63-1.83.35-.18.88-.42 1.25-.58 5.29-1.37 3.66-9.72-1.73-9.49-8.19.35-16.4.32-24.6.09-.39-12.68.71-25.38 3.91-37.67 11.76 14.74 21.98 28.9 30.76 42.06-2.42 3.63-8.62 14.04-5.09 20.7 0 0 6.74 11.47 21.62 5.53.64 1.09 1.29 2.17 1.91 3.24 9.5 16.26 16.99 30.96 22.74 43.27-25.76-11.73-66.67-23.63-133.36-23.99zm224.49-16.65c3.33-15.25 7.65-30.29 13.21-44.55 1.01 1.86 2.02 3.73 3.02 5.59 2.85 5.33 5.7 10.66 8.53 16-7.63 8.18-15.84 16.14-24.76 22.96z"/><circle cx="393.09" cy="277.66" r="16.59" fill="#BCBCBC" transform="rotate(-22.742 393.074 277.653)"/><circle cx="61.4" cy="242.35" r="15.4" fill="#BCBCBC"/><path fill="#BCBCBC" d="M269.65 33.16c-.06-.31-1.48-7.58-10.41-13.64-16.67-11.32-44.96-8.77-65.75-4.64-2.33.45-57.12 11.2-69.29 32.42-2.7 4.71-3.21 9.61-1.5 14.57-3.03.42-5.66 1.72-6.83 4.65-.47.91-2.06 4.46-.44 7.99 1.24 2.69 3.92 4.48 7.97 5.32 1.61.5 14.26 4.18 35.55 4.18 11.8 0 26.26-1.13 42.97-4.57 2.97-.67 72.64-16.86 67.73-46.28zm-47.09 11.79c-1.19-1.96-5.65-5.68-21.79-.7-22.21 5.85-47.84 10.4-52.95 8.4 1.74-3.12 9.95-13.18 45.51-20.15 19.77-3.97 51.88-6.12 54.74 4.8-.25 1-2.64 7.31-24.07 15.37.25-.59.43-1.21.53-1.85.21-1.48.03-3.67-1.97-5.87zm-88.31 307.06c-1.13.08-12.51.75-19.7-3.64-3.23-1.97-5.11-4.64-5.61-7.95-.01-.05-.07-.51-.04-1.24.09-2.85 1.62-12.37 17.52-15.14 2.48-.6 39.03-8.78 93.52 16.93.73.34 17.93 8.34 17.64 17.56-.07 2.24-1.16 4.35-3.24 6.28-.56.69-3.6 4.12-9.69 4.94-5.89.8-12.58-1.09-19.86-5.6-1.47-.73-27.01-12.88-70.54-12.14z"/></svg>