<svg xmlns="http://www.w3.org/2000/svg" xml:space="preserve" width="530" height="530" viewBox="30.44 609.14 530 530"><path fill="#ECECEC" d="M482.76 686.83c-50.03-50.03-116.55-77.59-187.31-77.59s-137.28 27.55-187.31 77.59-77.59 116.55-77.59 187.31 27.55 137.28 77.59 187.31c50.03 50.03 116.55 77.59 187.31 77.59s137.28-27.55 187.31-77.59c50.03-50.03 77.59-116.55 77.59-187.31-.01-70.76-27.56-137.28-77.59-187.31zm-363.07 363.06c-46.94-46.95-72.8-109.36-72.8-175.75 0-65.67 25.31-127.44 71.29-174.2 1.23 11.65 11.6 19.15 11.6 19.15 60.99 57.02 99.13 115.3 122.57 161.74-2.3 3.38-9.13 14.46-5.42 21.46 0 0 5.83 9.93 18.61 6.79 16.89 39.37 21.67 65 21.67 65 9.26 20.13 21.41 12.81 21.42 12.8 13.3-6.71 9.26-20.74 9.26-20.74-6.06-25.07-14.14-49.27-23.43-72.26 21.11-12.01 54.67-31.39 76.11-45.24 0 0-26.78 49.55-28.85 158.4-21.35-3.83-46.06-7.71-74.61-11.49 0 0-66.85-10.24-68.74 6.99 0 0-10 14.92 50.5 21.25 0 0 44.48 6.81 93 17.1.45 16.53 1.46 34.17 3.16 52.99 0 0 .73 14.61 8.34 22.04a250.276 250.276 0 0 1-57.93 6.77c-66.38 0-128.8-25.85-175.75-72.8zm260.77 41.28s-2.13-16.58-3.15-42.21c8.25 2.02 16.33 4.12 24.03 6.28 0 0 28.52 8.56 51.98 8.99 0 0 .89.04 2.27-.02-22.96 19.41-48.89 34.29-76.72 44.18 1.54-4.12 2.33-9.68 1.59-17.22zm91.99-42.57c-.5-3.3-2.41-6.45-7.38-8.54 0 0-20.87-11.9-88.22-26.18.7-52.86 8.13-122.37 37.33-173.75 0 0 17.71-24.7 2.89-40.54 0 0-11.24-14.82-35.76-1.02 0 0-61.31 38.32-80.73 51.09 0 0 17.88-66.76 16.86-86.86 0 0 3.07-24.19-14.82-20.95 0 0-20.6 1.88-20.95 20.95 0 0 .6 34.15-12.43 76.54-48.18-92.67-107.63-155.04-107.63-155.04-5.42-5.18-10.34-8.1-14.72-9.5 42.68-31.94 94.28-49.22 148.54-49.22 66.39 0 128.81 25.85 175.75 72.8 46.94 46.94 72.8 109.36 72.8 175.75.01 65.8-25.39 127.68-71.53 174.47z"/><circle cx="205.42" cy="943.63" r="20.95" fill="#ECECEC"/><circle cx="424.78" cy="965.86" r="20.18" fill="#ECECEC"/></svg>