<svg xmlns="http://www.w3.org/2000/svg" xml:space="preserve" width="841.89" height="595.28"><circle cx="410.84" cy="287.34" r="251.24" fill="none" stroke="#BCBCBC" stroke-miterlimit="10" stroke-width="8"/><path fill="#BCBCBC" d="M402.79 385.15S379 257.39 248.72 135.6c0 0-19.82-14.33-7.36-34.03 0 0 14.16-23.28 38.52 0 0 0 115.55 121.19 152.93 275.81 0 0 3.96 13.73-9.06 20.3-.01.01-11.9 7.17-20.96-12.53z"/><path fill="#BCBCBC" d="M397.37 178.39s1 57-28 114.5c0 0-10.33 13.83-6 22 0 0 8.5 14.5 27.5 2.5 0 0 61-34 93.5-55 0 0-40 74-25 240 0 0 1.33 27 19.67 25.67 0 0 17.67-1 15-28.33 0 0-19.67-153 33-245.67 0 0 17.33-24.17 2.83-39.67 0 0-11-14.5-35-1 0 0-60 37.5-79 50 0 0 17.5-65.33 16.5-85 0 0 3-23.67-14.5-20.5 0 0-20.16 1.84-20.5 20.5z"/><circle cx="322.74" cy="355.35" r="20.5" fill="#BCBCBC"/><circle cx="537.41" cy="377.1" r="19.75" fill="#BCBCBC"/><path fill="#BCBCBC" d="M576.84 449.72s-40.88-23.32-193.72-43.56c0 0-65.42-10.02-67.27 6.84 0 0-9.79 14.6 49.42 20.8 0 0 87.03 13.32 149.21 30.77 0 0 27.91 8.38 50.87 8.8 0 0 15.55.84 18.44-9.34.95-4.99.92-11-6.95-14.31z"/></svg>