<svg xmlns="http://www.w3.org/2000/svg" xml:space="preserve" width="1300" height="600"><path fill="#b0aeff" d="M1203.34 521.53s-68.9-41.88-135.76-99.96c0 0-49.98-52.01-54.03-123.6 0 0 0-14.18 14.18-20.94 0 0 14.18-7.43 9.46-20.26 0 0-7.43-18.91-27.69-13.51 0 0-39.18 11.48-37.82 56.06 0 0 1.35 49.31 33.1 96.59 0 0-105.2-59.94-227.79-50.44 0 0 9.79-9.87 15.03-26.22 10.21.36 20.39.57 30.51.57 40.74 0 66.07-3.07 66.32-3.1l.14-.02c11.23-2.22 18.57-6.23 21.82-11.91 2.59-4.53 1.6-8.56 1.36-9.38-2.58-11.43-11.38-13.14-16.4-13.14-2.52 0-4.44.43-4.89.53-17.74 3.05-37.67 4.6-59.23 4.6-13.05 0-25.77-.57-37.67-1.45-1.74-8.87-5.43-18.44-11.93-28.52 0 0 74.47 21.89 130.19-1.35 0 0 18.24-6.08 15.54-19.59 0 0-4.05-16.88-25.67-8.78 0 0-86.48 25.75-201.98-49.22 0 0-5.79-1.56-13.16-1.46-.73-36.28 1.1-75.02 6.92-115.02.24-1.07 5.69-26.23-3.5-37.69-2.92-3.64-7.02-5.48-12.19-5.48-.3 0-29.55.38-30.4 32.9-.03.46-2.64 46.31-.89 106.93 2.86 98.66 14.94 161.93 24.91 198.29-9.08-13.35-52.52-78.4-95.46-162.49-.15-1.2-1.8-13.8-6.63-24.91-.36-.69-8.99-16.81-21.72-16.81-1.05 0-2.11.11-3.12.33-.21.03-5.29.78-10.2 4.44-4.53 3.39-9.71 10.01-8.64 22.28.01.17 1.6 16.77 10.85 29.23.53 1.86 9.04 32.23 12.27 77.92-3.13-2.45-6.51-3.08-9.15-3.08-3.95 0-6.99 1.4-7.06 1.44-1.44.62-2.84 1.21-4.26 1.81-16.07-28.53-32.17-61-46.62-97.01-.62-2.63-11.47-47.76-27.46-89.03 34.19-11.57 82.1-33.28 77.13-63.02 0 0-9.14-49.72-122.42-27.21 0 0-132.01 25.38-115.12 73.3 0 0 .49 2.41 4.05 5.27-6.74-.71-13.68.02-15.68 5.4 0 0-7.28 13.01 9.83 16.46 0 0 39.09 12.51 104.13 3.64 13.68 26.62 33.03 63.59 45.45 84.31.5 2.46 4.54 23.73 2.93 55.84-.8 15.97-3.13 36.38-8.72 59.49-7.02.93-10.93 1.03-11.47 1.04-4.89-.32-9.07-.03-12.53.87 5.43-19.94 12.73-39.16 22.49-56.34 0 0 17.56-24.48 2.87-40.19 0 0-11.14-14.69-35.46-1.01 0 0-60.79 37.99-80.04 50.66 0 0 17.73-66.19 16.72-86.12 0 0 3.04-23.98-14.69-20.77 0 0-20.43 1.86-20.77 20.77 0 0 .59 33.87-12.33 75.9-47.77-91.89-106.72-153.73-106.72-153.73-24.68-23.59-39.02 0-39.02 0-12.63 19.96 7.46 34.48 7.46 34.48 60.48 56.54 98.29 114.33 121.53 160.37-2.28 3.36-9.05 14.33-5.37 21.27 0 0 5.78 9.84 18.44 6.73 8.92 20.79 14.44 37.71 17.64 48.99-19.25-4.72-30.47-7.48-30.47-7.48-97.85-23.7-129.23-24.13-129.23-24.13-9.35-.31-17.76.02-25.36.85.58-.45 1.07-.98 1.43-1.56 1.21-1.66 1.53-3.9.05-6.21-6.61-10.3-11.96-21.61-16.58-32.92 2.67-2.32 5.34-4.64 8.01-6.95 4.19-3.63 8.38-7.25 12.6-10.85 1.29-1.1 2.57-2.19 3.87-3.28.38-.31.95-.76 1.35-1.07 6.02-3.19 1.62-12.85-4.84-11.02-9.83 2.79-19.81 5.14-29.83 7.22-4.45-16.38-6.82-33.3-6.04-50.32.31-6.81-10.56-8.36-11.94-1.62-3.64 17.72-8.8 35.22-14.56 52.34-.65 1.92-1.31 3.85-1.98 5.79-16.31 2.31-32.99 3.35-48.92.83-7.71-1.22-10.66 8.96-3.23 11.72 13.77 5.12 27.41 10.61 40.94 16.33-8.15 18.45-18.31 36.09-32.02 50.38-5.48 5.71 2.74 13.73 8.6 8.6 16.75-14.68 33.51-29.34 50.28-43.98.87-.76 1.75-1.52 2.62-2.28 11.81 5.48 23.32 11.64 33.37 19.39.15.11.3.21.46.3-59.31 9.31-62.83 51.3-62.83 51.3-2.34 45.24 79.13 47.83 79.13 47.83 31.37 0 27.62-18.96 27.62-18.96-2.81-8.19-14.51-6.89-14.51-6.89-66.02 1.72-53.84-24.56-53.84-24.56 20.6-35.76 126.61-9.22 126.61-9.22 45.47 10.18 95.71 22.11 147.25 34.74-.65 26.34.15 56.25 3.2 89.91 0 0 1.35 27.36 19.93 26 0 0 17.9-1.01 15.2-28.71 0 0-4.29-33.43-3.55-78.63 208.4 51.74 425.05 111.1 425.05 111.1 167.85 44.6 181.9-35.55 181.9-35.55 6.78-37.89-32.55-70.87-57.6-87.68 63.19 26.06 138.67 71.58 222.07 149.77 0 0 26.78 25.08 47.72 3.47-.03.03 19.56-27.66-13.54-49.95zM708.25 236.5s31.43 18.78 42.17 44.62c-17.57-2.59-28.66-5-28.9-5.05l-.15-.03c-5.49-.77-10.02.56-13.35 3.9-5.78 5.79-5.84 15.59-5.84 16 0 12.67 12.24 17.24 18.68 17.89a892.4 892.4 0 0 0 28.22 2.84c-4.47 8.32-12.29 16.81-24.61 25.21 0 0-4.58 3.68-14.67 8.83-.79-3.25-1.58-6.57-2.35-9.94-7.01-30.45-13.91-68.65-17.69-111.95 5.47 2.59 12.3 5.61 18.49 7.68zm.17 239.93c-26.29-6.44-55.21-13.52-85.25-20.89.4-.26.8-.53 1.19-.82.33-.23 8.07-5.77 9.07-14.29.57-4.9-1.2-9.71-5.32-14.36-.42-.43-21.17-21.67-49.15-60.36.91-2.42 1.6-5.36 1.97-8.93.03-.32 2.9-31.59-1.81-78.55 9.44 14.58 75.36 116.34 129.3 198.2zM465.04 342.66c16.07-3.77 32.42-8.79 46.1-13.38 19.9 33.49 47.61 76.06 82.04 118.91-51.98-12.74-105.76-25.93-154.01-37.77 2.09-2.93 4.07-6.55 5.87-11.03.18-.42 10.83-24.59 20-56.73zm85.28-30.11c.07 3.58.1 7.22.08 10.92a835.58 835.58 0 0 1-4.48-7.18c1.75-1.21 3.2-2.46 4.4-3.74zM407.45 32.11s90.4-18.17 96.56 11.82c0 0 1.76 16.09-58.59 35.3-.11-.23-.22-.46-.32-.69.25-.19.51-.37.74-.56 0 0 16.9-9.32 7.89-18.49 0 0-2.47-5.93-20.12-2.6-.62-1-1.25-1.99-1.87-2.94-.49-.71-12.18-17.41-28.21-17.41-2.89 0-5.77.56-8.56 1.66l-.1.04c-.24.11-19.95 9.91-17.93 31.82-23.8 4.55-48.39 7.5-49.57.6-.01.01 3.99-23.62 80.08-38.55zm70.53 236.76c3.06 6.16 8.61 17.04 16.47 31.29-7.52 2.54-14.49 4.67-20.85 6.45 2.32-12.51 3.96-25.31 4.38-37.74zM339.42 385.95c-.11-.55-.2-.86-.2-.86-6.01-24.85-14.02-48.85-23.23-71.65 20.93-11.9 54.22-31.12 75.47-44.86 0 0-21.02 38.9-27.1 123.49-8.82-2.16-17.15-4.21-24.94-6.12zm66.52-42.09c4.99 4.32 12.18 4.83 15.22 4.83.82 0 1.39-.03 1.62-.05h.33c.96 0 1.94-.02 2.94-.05a339.958 339.958 0 0 1-16.65 38.8c-.48.78-4.3 7.15-5.85 14.29-1.55-.38-3.09-.76-4.62-1.13 1.21-18.27 3.39-37.53 7.01-56.69zm470.9 141.74c14.62-.71 16.5-14.22 16.5-14.22 5.27-20.36-17.21-23.27-17.21-23.27-11.24-1.29-24.81 2.28-24.81 2.28-62.74-5.8-52.91-25.22-52.91-25.22 18.73-22.84 100.66 9.48 100.66 9.48 62.74 27.14 54.78 61.62 54.78 61.62-9.83 32.32-122.97 10.06-122.97 10.06-9.31-2.24-35.62-8.65-72.02-17.55-2.58-9.93-8.6-21.44-14.37-31-.14-.32-10.31-22.84-22.02-60.92 6.81-2.92 16.11-5.85 27.64-7.03 0 0 17.05-4.82 47.86-4.58-30.12 10.08-33.5 34.75-33.5 34.75-7.72 61.4 112.37 65.6 112.37 65.6z"/><circle cx="226.85" cy="298.45" r="19.78" fill="#b0aeff"/><circle cx="171.62" cy="305.02" r="28.37" fill="#b0aeff"/><circle cx="1065.72" cy="365.22" r="19.76" fill="#b0aeff"/><circle cx="710.12" cy="555.38" r="16.81" fill="#b0aeff"/><circle cx="1117.9" cy="375.98" r="26.34" fill="#b0aeff"/><path fill="#b0aeff" d="M1289.01 379.66c-19.87-.31-39.71-5.15-58.87-11.38-.35-2.07-.68-4.13-1.01-6.18-3.44-21.57-5.88-43.54-6.51-65.4-.23-8.06-11.19-7.56-12.16 0-2.57 20.19-9.11 39.62-17.91 57.96-11.51-4.54-22.91-9.43-34.04-14.81-7.12-3.44-12.49 5.94-6.14 10.5-2.29-1.64-.71-.43-.09.28.91 1.05 1.8 2.11 2.69 3.18 2.97 3.56 5.9 7.14 8.84 10.72 4.65 5.68 9.28 11.36 13.9 17.06-7.67 12.34-16.18 24.55-26.02 35.29-2.84 2.1-2.63 5.61-.84 8.04 1.8 2.61 5.36 3.97 8.27 1.69 10.52-5.46 22.11-8.93 33.43-12.28 3.15-.93 6.31-1.83 9.47-2.71 15.18 18.77 30.34 37.56 45.47 56.36 2.61 3.24 5.22 6.48 7.82 9.72 4.34 5.39 13.38-1.68 9.55-7.37-13.57-20.17-21.96-43.58-27.8-67.51 17.76-4.12 35.62-7.92 53.55-11.23 6.95-1.27 5.06-11.83-1.6-11.93zM682.73 535.11s-39.07-27.33-191.4-61.95c0 0-65.07-16.19-68.5.65 0 0-11.24 13.82 47.92 25.58 0 0 86.56 21.52 147.68 44.91 0 0 27.38 11.05 50.5 13.61 0 0 15.61 2.29 19.48-7.71 1.42-4.95 1.94-11.01-5.68-15.09zM79.53 191.91c2.84 0 5.57-1.15 8.13-3.4 1.18-.91 5.49-5.76-2.96-24.22-.07-.18-7.15-18.68-16.27-50.85-.23-1.33-2.64-13.88-12.42-13.88-.59 0-1.21.05-1.89.16-.13.03-13.4 2.86-13.36 16.97-.15 1.75-1.45 22.93 21.69 61.36.3.56 7.41 13.86 17.08 13.86zM115.88 173.12c2.53 0 4.95-.87 7.2-2.59.8-.46 4.78-2.95 5.92-8.11 1.11-4.99-.78-10.73-5.61-17.06-.76-1.27-13.55-23.33-11.16-60.36.13-.96 1.3-10.63-3.4-16.87-2.11-2.8-5.06-4.48-8.78-4.99-.06-.01-.57-.07-1.4-.07-3.22 0-14.01 1.05-17.71 14.5-.77 2.09-11.31 32.98 15.75 80.05.36.65 8.78 15.5 19.19 15.5zM1096.5 289.83c2.56 2.26 5.3 3.4 8.14 3.4 9.66 0 16.77-13.3 17.03-13.79 23.18-38.51 21.89-59.69 21.73-61.44.04-14.1-13.22-16.94-13.42-16.98-.62-.1-1.23-.15-1.82-.15-9.78 0-12.19 12.54-12.42 13.88-9.12 32.15-16.2 50.67-16.24 50.76-8.49 18.55-4.18 23.41-3 24.32zM1066.1 259.43c2.56 2.26 5.3 3.4 8.14 3.4 9.66 0 16.77-13.3 17.03-13.79 23.18-38.51 21.89-59.69 21.73-61.44.04-14.1-13.22-16.94-13.42-16.98-.62-.1-1.23-.15-1.82-.15-9.78 0-12.19 12.55-12.42 13.88-9.12 32.15-16.2 50.67-16.24 50.76-8.48 18.56-4.18 23.41-3 24.32z"/></svg>