<svg xmlns="http://www.w3.org/2000/svg" xml:space="preserve" viewBox="0 0 1291.44 583.47"><path fill="#dbdbdb" d="M1193.21 518.06s-68-41.33-134-98.67c0 0-49.33-51.33-53.33-122 0 0 0-14 14-20.67 0 0 14-7.33 9.33-20 0 0-7.33-18.67-27.33-13.33 0 0-38.67 11.33-37.33 55.33 0 0 1.33 48.67 32.67 95.33 0 0-103.83-59.17-224.83-49.78 0 0 9.66-9.74 14.84-25.88 10.08.36 20.13.56 30.12.56 40.21 0 65.21-3.03 65.46-3.06l.14-.02c11.08-2.19 18.33-6.14 21.54-11.75 2.56-4.47 1.58-8.45 1.34-9.25-2.55-11.28-11.23-12.97-16.19-12.97-2.48 0-4.38.42-4.83.52-17.51 3.01-37.18 4.54-58.46 4.54-12.88 0-25.44-.56-37.18-1.44-1.72-8.75-5.36-18.2-11.78-28.15 0 0 73.51 21.6 128.5-1.33 0 0 18-6 15.33-19.33 0 0-4-16.67-25.33-8.67 0 0-85.36 25.41-199.36-48.59 0 0-5.71-1.54-12.99-1.44-.72-35.81 1.08-74.05 6.83-113.53.23-1.05 5.62-25.89-3.45-37.2-2.88-3.59-6.93-5.41-12.04-5.41-.29 0-29.16.37-30 32.47-.03.45-2.61 45.71-.87 105.54 2.82 97.38 14.75 159.83 24.59 195.72-8.96-13.18-51.83-77.38-94.23-160.38-.15-1.19-1.77-13.62-6.54-24.58-.36-.68-8.88-16.59-21.44-16.59-1.04 0-2.08.11-3.08.33-.21.03-5.22.77-10.06 4.39-4.47 3.35-9.59 9.88-8.53 21.99.01.16 1.58 16.55 10.71 28.85.53 1.84 8.92 31.81 12.11 76.91-3.09-2.42-6.42-3.04-9.03-3.04-3.9 0-6.9 1.39-6.97 1.42-1.42.61-2.81 1.2-4.2 1.78-15.86-28.16-31.75-60.21-46.02-95.75-.62-2.59-11.32-47.14-27.1-87.87 33.75-11.42 81.03-32.85 76.13-62.2 0 0-9.02-49.08-120.83-26.86 0 0-130.3 25.05-113.63 72.35 0 0 .48 2.38 3.99 5.2-6.65-.7-13.51.02-15.48 5.33 0 0-7.18 12.84 9.7 16.25 0 0 38.58 12.35 102.78 3.59 13.5 26.27 32.6 62.76 44.86 83.22.49 2.43 4.48 23.42 2.9 55.11-.79 15.77-3.09 35.91-8.61 58.72-6.93.92-10.79 1.02-11.32 1.03-4.82-.32-8.95-.03-12.36.85 5.36-19.68 12.56-38.66 22.2-55.61 0 0 17.33-24.17 2.83-39.67 0 0-11-14.5-35-1 0 0-60 37.5-79 50 0 0 17.5-65.33 16.5-85 0 0 3-23.67-14.5-20.5 0 0-20.17 1.83-20.5 20.5 0 0 .59 33.43-12.17 74.92-47.15-90.7-105.34-151.74-105.34-151.74-24.36-23.28-38.52 0-38.52 0-12.46 19.7 7.36 34.03 7.36 34.03 59.69 55.8 97.02 112.85 119.95 158.29-2.25 3.32-8.93 14.15-5.3 21 0 0 5.71 9.71 18.2 6.65 8.8 20.52 14.25 37.22 17.41 48.35-19-4.66-30.07-7.38-30.07-7.38-96.58-23.39-127.55-23.82-127.55-23.82-9.23-.31-17.53.02-25.03.84.57-.45 1.06-.97 1.41-1.54 1.2-1.64 1.51-3.85.04-6.12-6.53-10.17-11.81-21.33-16.37-32.5 2.63-2.29 5.27-4.58 7.9-6.86 4.14-3.58 8.28-7.16 12.44-10.71 1.27-1.08 2.54-2.16 3.82-3.23.37-.31.94-.75 1.34-1.05 5.95-3.15 1.6-12.69-4.78-10.88-9.71 2.75-19.55 5.07-29.44 7.13-4.39-16.17-6.73-32.87-5.96-49.66.31-6.73-10.42-8.25-11.79-1.6-3.59 17.49-8.68 34.76-14.37 51.66-.64 1.9-1.29 3.81-1.95 5.72-16.1 2.27-32.56 3.31-48.28.82-7.61-1.21-10.52 8.85-3.19 11.57 13.59 5.05 27.05 10.47 40.4 16.12C47 332.59 36.97 350 23.43 364.1c-5.41 5.63 2.71 13.55 8.49 8.48 16.53-14.49 33.07-28.96 49.63-43.41l2.58-2.25c11.66 5.4 23.01 11.49 32.94 19.14.14.11.3.21.45.3-58.54 9.18-62.02 50.63-62.02 50.63-2.31 44.66 78.1 47.21 78.1 47.21 30.96 0 27.26-18.71 27.26-18.71-2.77-8.08-14.33-6.81-14.33-6.81-65.16 1.7-53.14-24.24-53.14-24.24 20.33-35.3 124.97-9.09 124.97-9.09 44.88 10.05 94.47 21.82 145.33 34.29-.64 26 .15 55.52 3.15 88.75 0 0 1.33 27 19.67 25.67 0 0 17.67-1 15-28.33 0 0-4.24-33-3.51-77.61 205.69 51.07 419.54 109.66 419.54 109.66 165.67 44.02 179.54-35.09 179.54-35.09 6.69-37.4-32.12-69.95-56.86-86.54 62.37 25.72 136.87 70.65 219.19 147.82 0 0 26.44 24.76 47.1 3.42.03.01 19.37-27.33-13.3-49.33zM704.54 236.73s31.02 18.54 41.62 44.04c-17.34-2.55-28.29-4.94-28.53-4.99l-.15-.03c-5.42-.76-9.89.55-13.18 3.85-5.71 5.72-5.76 15.39-5.76 15.79 0 12.51 12.08 17.02 18.43 17.65 9.27 1.09 18.56 2.01 27.86 2.8-4.41 8.21-12.13 16.59-24.29 24.88 0 0-4.52 3.63-14.48 8.71-.78-3.21-1.56-6.48-2.32-9.81-6.92-30.06-13.73-67.76-17.46-110.5 5.42 2.58 12.16 5.57 18.26 7.61zm.18 236.81c-25.95-6.35-54.5-13.35-84.15-20.61.39-.25.79-.52 1.17-.8.32-.23 7.97-5.7 8.95-14.11.57-4.83-1.18-9.58-5.25-14.17-.42-.42-20.89-21.39-48.51-59.58.89-2.39 1.58-5.29 1.95-8.82.03-.31 2.86-31.18-1.79-77.53 9.32 14.39 74.38 114.82 127.63 195.62zM464.49 341.51c15.86-3.73 32-8.67 45.51-13.21 19.64 33.05 46.99 75.07 80.97 117.37-51.3-12.58-104.39-25.59-152.01-37.28 2.06-2.89 4.02-6.46 5.79-10.89.18-.41 10.7-24.26 19.74-55.99zm84.17-29.72c.07 3.53.1 7.12.08 10.78-1.47-2.33-2.95-4.69-4.43-7.09 1.74-1.19 3.18-2.43 4.35-3.69zM407.65 34.99s89.23-17.93 95.3 11.66c0 0 1.73 15.88-57.83 34.84-.11-.23-.21-.45-.32-.68.25-.18.5-.36.73-.55 0 0 16.68-9.2 7.78-18.25 0 0-2.44-5.86-19.86-2.57-.61-.99-1.23-1.96-1.85-2.9-.48-.7-12.02-17.18-27.84-17.18-2.85 0-5.7.55-8.44 1.64l-.1.04c-.23.11-19.69 9.78-17.7 31.41-23.49 4.49-47.76 7.41-48.92.6 0 0 3.95-23.32 79.05-38.06zm69.62 233.69c3.02 6.08 8.5 16.82 16.26 30.88a396.3 396.3 0 0 1-20.58 6.36c2.29-12.33 3.9-24.97 4.32-37.24zM340.51 384.24c-.11-.54-.19-.85-.19-.85-5.93-24.53-13.83-48.22-22.93-70.72 20.66-11.75 53.51-30.72 74.49-44.28 0 0-20.75 38.39-26.75 121.89-8.71-2.14-16.94-4.15-24.62-6.04zm65.65-41.55c4.92 4.27 12.02 4.77 15.03 4.77.81 0 1.37-.03 1.59-.05h.32c.95 0 1.92-.02 2.9-.05a335.72 335.72 0 0 1-16.43 38.3c-.47.76-4.24 7.06-5.77 14.11-1.53-.38-3.05-.75-4.56-1.12 1.2-18.03 3.35-37.05 6.92-55.96zM870.95 482.6c14.43-.7 16.29-14.04 16.29-14.04 5.2-20.09-16.98-22.96-16.98-22.96-11.09-1.28-24.49 2.25-24.49 2.25-61.93-5.73-52.22-24.89-52.22-24.89 18.49-22.54 99.36 9.36 99.36 9.36 61.92 26.79 54.07 60.82 54.07 60.82-9.7 31.9-121.37 9.93-121.37 9.93-9.19-2.21-35.16-8.54-71.08-17.33-2.55-9.8-8.49-21.16-14.18-30.59-.14-.31-10.17-22.55-21.74-60.13 6.72-2.88 15.9-5.77 27.28-6.94 0 0 16.83-4.76 47.24-4.52-29.75 9.96-33.08 34.3-33.08 34.3-7.64 60.59 110.9 64.74 110.9 64.74z"/><circle cx="229.4" cy="297.87" r="19.52" fill="#dbdbdb"/><circle cx="174.88" cy="304.35" r="28" fill="#dbdbdb"/><circle cx="1057.38" cy="363.78" r="19.5" fill="#dbdbdb"/><circle cx="706.4" cy="551.47" r="16.59" fill="#dbdbdb"/><circle cx="1108.88" cy="374.4" r="26" fill="#dbdbdb"/><path fill="#dbdbdb" d="M1277.77 378.03c-19.61-.3-39.19-5.08-58.1-11.23-.34-2.04-.67-4.08-1-6.1-3.4-21.29-5.8-42.98-6.42-64.55-.23-7.95-11.05-7.47-12 0-2.54 19.93-9 39.1-17.68 57.21-11.37-4.48-22.61-9.31-33.6-14.62-7.03-3.4-12.32 5.87-6.06 10.36-2.26-1.62-.7-.42-.09.28.9 1.03 1.78 2.09 2.65 3.14 2.93 3.51 5.83 7.05 8.72 10.58 4.58 5.6 9.16 11.22 13.72 16.83-7.57 12.18-15.97 24.23-25.68 34.84-2.8 2.07-2.59 5.54-.83 7.94 1.78 2.57 5.29 3.92 8.16 1.67 10.39-5.39 21.82-8.81 33-12.12 3.11-.92 6.23-1.81 9.35-2.67 14.98 18.53 29.94 37.07 44.88 55.63 2.58 3.2 5.15 6.4 7.72 9.59 4.28 5.32 13.2-1.65 9.42-7.27-13.39-19.91-21.68-43.01-27.44-66.63 17.53-4.07 35.16-7.82 52.85-11.08 6.87-1.27 5-11.7-1.57-11.8zM679.36 531.47s-38.57-26.97-188.91-61.14c0 0-64.23-15.98-67.61.64 0 0-11.09 13.64 47.3 25.25 0 0 85.44 21.24 145.76 44.33 0 0 27.03 10.91 49.85 13.43 0 0 15.41 2.26 19.22-7.61 1.39-4.9 1.91-10.88-5.61-14.9zM83.98 192.72c2.8 0 5.5-1.13 8.03-3.36 1.17-.9 5.42-5.69-2.92-23.91-.07-.18-7.06-18.44-16.06-50.19-.23-1.32-2.6-13.7-12.26-13.7-.58 0-1.19.05-1.86.16-.13.03-13.23 2.83-13.18 16.75-.15 1.73-1.43 22.63 21.41 60.56.29.56 7.31 13.69 16.84 13.69zM119.87 174.17c2.49 0 4.89-.86 7.11-2.56.79-.45 4.72-2.91 5.85-8.01 1.09-4.93-.77-10.59-5.54-16.84-.75-1.25-13.38-23.02-11.02-59.57.13-.95 1.28-10.49-3.36-16.65-2.08-2.76-4.99-4.42-8.66-4.92-.06-.01-.56-.07-1.39-.07-3.18 0-13.83 1.03-17.48 14.32-.76 2.07-11.16 32.55 15.54 79.01.36.63 8.67 15.29 18.95 15.29zM1087.76 289.36c2.53 2.23 5.23 3.36 8.03 3.36 9.54 0 16.56-13.13 16.81-13.61 22.88-38.01 21.6-58.91 21.45-60.64.04-13.92-13.05-16.72-13.25-16.76-.61-.1-1.21-.14-1.8-.14-9.65 0-12.03 12.38-12.25 13.7-9 31.73-15.99 50.01-16.03 50.1-8.38 18.3-4.13 23.1-2.96 23.99zM1057.76 259.36c2.53 2.23 5.23 3.36 8.03 3.36 9.54 0 16.56-13.13 16.81-13.61 22.88-38.01 21.6-58.91 21.45-60.64.04-13.92-13.05-16.72-13.25-16.76-.61-.1-1.21-.14-1.8-.14-9.65 0-12.03 12.38-12.25 13.7-9 31.73-15.99 50.01-16.03 50.1-8.38 18.3-4.13 23.1-2.96 23.99z"/></svg>