<svg xmlns="http://www.w3.org/2000/svg" xml:space="preserve" viewBox="0 0 234.96 225.56"><path fill="#F4F4F5" d="M229.11 199.99c-27.63-48.54-4.52-104.57-4.52-104.57l-16.2 8.13c-9.94 23.11-14.14 52.03-14.14 52.03-8.52-10.84-20.91-35.25-20.91-35.25-.79-1.48-1.49-2.93-2.14-4.36l6.59 1.71c-2.52-4.45 18.01-19.17 18.01-19.17 18.98-15.11 20.72-17.62 20.72-17.62 5.04-4.84.19-8.2.19-8.2-8.52 1.55-24.27-2.84-24.27-2.84.65 7.17-9.23 18.4-9.23 18.4-5.76 5.62-11.41 9.75-16.86 12.69l-.01-.03c-1.58-8.17-.88-13.37-.88-13.37 1.29-10.2 4.13-20.92 4.13-20.92 4.78-17.17-3.62-20.79-3.62-20.79l22.34 7.23-3.62-9.81c-23.37-13.82-53.97-40.93-53.97-40.93L124.14 8l7.36 26.47 2.58.9 2.58 28.66-24.79-31.37h-11.75l1.16-2.07c-10.33 6.07-38.34 13.68-38.34 13.68 17.56 4.26 39.51 13.94 39.51 13.94l-1.42-2.84h10.84l23.86 20.72c-2.05 2.64-3.72 4.2-3.72 4.2-9.04 8.78-15.41 13.86-19.53 16.75 0 0-1.07-.6-2.94-2.16l-7.49 2.84c1.41 1.08 2.82 2.08 4.23 3.02-3.83 1.92-7.2 3.84-10.17 5.71 4.69-10.71 7.5-18.02 7.5-18.02l-20.53 9.68c-24.4 44.15-70.36 84.95-70.36 84.95l-2.84-.65-5.16 29.82 1.68 1.81 27.76-23.89.13-2.97c87.53-87.15 146.41-3.62 146.41-3.62l-11.49-2.45 4.91 11.75c45.32 19.11 43.64 24.53 43.64 24.53l11.35-17.4zM74.18 150.42c2.04-3.5 4.01-7.08 5.92-10.65 6.37 2.53 12.48 4.06 17.54 4.98-14.05 1.67-23.46 5.67-23.46 5.67zm65.01-79.48-1.49-28.33c8.52 10.34 5.63 20.99 1.49 28.33zm-3.4 35.87c7.48-8.85 9.08-12.17 9.08-12.17-.34 3.77-.01 8.02.78 12.53-3.43.24-6.7.09-9.76-.34 0 .01-.59.55-.1-.02zm-21.36 37.35c9.81-5.59 19.79-14.66 19.79-14.66-13.75-4.65-3.87-16.46-3.87-16.46l1.26-1.41.17.01c5.36 1.09 10.43 1.4 15.09 1.23 6.31 25.68 24.54 56.51 24.54 56.51-18.56-18.36-39.38-24.34-56.98-25.22zm60.71-38.93-4.73 8.8-2.11-5.57c4.36-1.7 6.84-3.23 6.84-3.23z"/><path fill="#F4F4F5" d="m109.62 5.66 9.35 3.68 11.97 24.27-3.37.05zM100.26 87.67l-3.1 4.39-21.69 3.1 5.69-5.94zM35.71 187.6l-19.62 27.11 1.29 8.52 20.65-34.34z"/></svg>