<svg xmlns="http://www.w3.org/2000/svg" xml:space="preserve" viewBox="0 0 260.53 237.59"><path fill="#181723" d="m213.02 188.6-4.65-.77c-25.17-31.37-36.99-48.61-36.99-48.61h14.33l-1.55 3.68c15.1-10.65 41.83-14.91 41.83-14.91-22.46-3.87-41.64-13.94-41.64-13.94l1.16 3.49h-42.02c7.77-7.51 16.2-14.01 16.2-14.01l2.97.26c15.11-11.23 26.73-18.01 26.73-18.01V55.95l-2.32-.19c-18.2 15.49-49.19 45.06-49.19 45.06 1.94-9.55 6.58-28.4 6.58-28.4 3.36-11.62 4.13-18.46 4.13-18.46 1.29-6.97-5.42-11.62-5.42-11.62l17.3 6.2 9.55-3.61c-3.36 1.55-62.74-41.57-62.74-41.57l-3.1 1.81s5.42 13.68 8 27.11l1.87.84s3.49 21.11 3.1 36.41l-4.26-12.2H58.48l18.01 21.11h38.79c-2.09 1.82-5.05 3.79-8.2 5.42 0 0-27.89 12.78-29.63 15.88 0 0-4.84 6.39 3.1 14.91L50.74 89.26H42.6l.78-2.52S16.46 99.91 0 99.91c0 0 36.79 3.87 43.57 14.14l-.58-2.91h11.43l9.23 4.26s-24.98-2.58-39.25 8.52c0 0-13.94 9.55-20.91 20.53l3.87 15.3s15.49 8.71 21.3 14.14c0 0 38.6-20.27 93.6 20.79l-3.87.52s22.46 2.84 40.02 14.72c0 0-9.55-12.59-16.27-24.98l-14.43-7.02 1.52-2.6s-29.76-12.36-65.52-10.42v-.29c37.76-1.16 65.26 10.65 65.26 10.65l-1.16 2.52 23.24 11.62 1.26-2.81c24.59 14.52 43.4 31.34 47.54 36.12 5.04 5.81-3.49 7.36-3.49 7.36 21.5-.97 58.48 2.71 58.48 2.71l1.55-3.1c-21.68-17.45-43.37-41.08-43.37-41.08zm-109.35-48.67c-7.17-.97-26.4-1.1-26.4-1.1-14.91.39-14.33-6.2-14.33-6.2.77-8.33 19.56-4.84 19.56-4.84 14.33 2.52 25.3 11.1 25.3 11.1l11.1-4.39c-19.11-10.59-19.95-17.95-19.95-17.95-.97-3.49 11.04-12.2 11.04-12.2 5.04-4.07 8.72-7.55 8.72-7.55-6.78 18.01-5.62 34.08-5.62 34.08l15.69 4.45c-.38-.49.03-1.56 1.01-3.01l.74 1.65 8.21 14.93c-20.61-7.68-35.07-8.97-35.07-8.97zm40.12 11.14 2.04-1.78-1.55-10.65 13.17 18.98c-4.84-2.5-9.39-4.67-13.66-6.55zm-19.66-88.54s.14 3.86-3.36 9.23h-.19l-.32-17.56s4.65 2.71 3.87 8.33z"/><path fill="#181723" d="M161.12 104.94 192.88 91l-6.19 13.17-24.79 5.03zM90.63 5.4l8.91 1.16 12.78 29.05-3.49-.38z"/></svg>