<svg xmlns="http://www.w3.org/2000/svg" xml:space="preserve" viewBox="0 0 259.77 247.74"><path style="filter: drop-shadow(3px 6px 5px rgba(0,0,0,0.4));" fill="#181723" d="M165.31 45.95 138.2 26.84c11.36 31.5 6.97 64.55 6.97 64.55-32.53-19.37-28.4-37.44-28.4-37.44l3.36-2.32 10.84-45.96-1.81-2.84L89.4 23.75c5.17 5.82-16.09 55.32-23.26 71.55l-8.49.23 1.03-2.32-40.35 12.91 41.18 12.39-1.1-2.06 13.04.06 12.27-13.88 2.13-2.19-.06 4.58-.26.06.26-4.91-54.49 61.72-3.1-.26C6.25 184.35 3.41 181.25 3.41 181.25c3.62 18.59 2.32 45.44 2.32 45.44 2.84 2.32 6.97-1.29 6.97-1.29 9.55-10.59 25.82-37.18 25.82-37.18 51.38-75.14 123.75-53.19 123.75-53.19l1.16-2.13-1.16 2.23c-66.23-16.46-109.51 35.15-109.51 35.15-1.55 12.59-9.78 38.54-9.78 38.54C56.15 194.01 80.07 176 80.07 176l-3.58-.1c7.75-10.26 13.75-15.69 13.75-15.69l2.13 2.13 13.56-11.23-1.84-2.71c33.89-27.31 74.65-1.55 74.65-1.55l3.44-1.85c6.49 36.61 21.35 63.11 21.35 63.11l-25.05-5.17 3.87 9.55c53.71 23.5 48.03 32.79 48.03 32.79l17.04-18.85c-11.36-23.76-10.85-53.45-10.85-53.45l2.58-2.07c.52-15.49 4.91-32.53 4.91-32.53l-23.5 11.1c-2.58 21.95-2.14 29.2-2.14 29.2-25.15-42.33-15.3-79.64-15.3-79.64l2.52-1.47c3.61-24.53 9.01-33.11 9.01-33.11L230.9 77.2l2.84-8.52c-29.46-54.6-25.45-57.25-25.31-57.32l-19.36 9.29c-6.97 47.77-27.11 63-27.11 63 .32-9.34.02-18.06-.45-25.05l2.25-1.03 1.55-11.62zM89.14 89.59c4.39-7.75 6.71-15.23 6.71-15.23 1.17 6.81 7.39 13.69 14.7 19.62l-31.41 1.1 10-5.49zm68.1 10.01 4.65-.39c10.26-6.58 21.5-23.05 21.5-23.05-3.2 13.19-4.36 26.29-4.16 38.84-10.26-8.83-21.99-15.4-21.99-15.4zm-6.65 30.27c-44.15-5.42-75.66 15.49-75.66 15.49l25.56-28.66-2.58 10.59 6.2 4.13c10.49-12.77 17.73-20.31 22.59-25.05l.41-1.08c6.06 3.56 10.56 5.73 10.56 5.73 18.34 10.33 12.92 18.85 12.92 18.85z"/><path fill="#181723" d="m135.36 12.13 11.87-8.01 1.04 2.58-24.79 48.29-3.1 2.06zM110.05 149.49l-12.13 15.24 1.8 1.55 12.4-15.5zM239.16 175.06l8-30.73 10.33-4.39-15.75 34.34z"/></svg>