<svg xmlns="http://www.w3.org/2000/svg" xml:space="preserve" viewBox="0 0 688.6 257.41"><path fill="#181723" d="m128.96 63.87 24.79-48.29-1.04-2.58-11.87 8.01-14.98 44.93zM103.4 173.61l1.8 1.55 12.4-15.49-2.07-1.3zM268.09 35.63l-11.98-24.27-9.34-3.68 17.95 28zM355.93 162.51l4.64 2.06 29.95-13.68-8-3.62z"/><path fill="#181723" d="m639.31 196.2-4.65-.77c-25.17-31.37-36.99-48.61-36.99-48.61H612l-1.55 3.68c15.1-10.65 41.83-14.91 41.83-14.91-22.46-3.87-41.64-13.94-41.64-13.94l1.16 3.49h-42.02c7.77-7.51 16.2-14.01 16.2-14.01l2.97.26c15.11-11.23 26.73-18.01 26.73-18.01V63.55l-2.32-.19c-18.2 15.49-49.19 45.06-49.19 45.06 1.94-9.55 6.58-28.4 6.58-28.4 3.36-11.62 4.13-18.46 4.13-18.46 1.29-6.97-5.42-11.62-5.42-11.62l17.3 6.2 9.55-3.61c-3.36 1.55-62.74-41.57-62.74-41.57l-3.1 1.81s5.42 13.68 8 27.11l1.87.84s3.49 21.11 3.1 36.41l-4.26-12.2h-49.55c-6.15-14.9-12.12-31.99-7.58-32.92l-29.82-20.14-12.78 11.23s11.88 17.94 8.65 37.96c0 0-4.26 19.11-14.46 38.73 0 0-1.33 2.83-3.14 7.49-1.46.16-2.88.26-4.22.26 0 0 1.5.16 3.93.49-2.09 5.46-4.71 13.17-6.65 21.71 0 0-2.84 16.78-.77 25.56 0 0-8-13.94-10.33-42.09 0 0-.77-5.16 1.55-23.5 0 0 2.07-17.56-1.81-21.43l20.14 7.23-3.87-8.52s-52.93-27.11-48.54-35.37l-5.42 3.61 5.2 52.84-20.72-31.92h-13.65l1.03-2.32s-25.34 12.64-39.39 13.9c4.21-16.35-3.86-19.84-3.86-19.84l22.34 7.23-3.62-9.81c-23.37-13.82-53.97-40.93-53.97-40.93l-6.58 5.68 7.36 26.47 2.58.9 2.58 28.66-24.79-31.37h-11.75l1.16-2.07c-4.17 2.45-11.22 5.15-18.15 7.5-8.4-18.58-6.48-19.85-6.38-19.9l-19.36 9.29c-6.97 47.77-27.11 63-27.11 63 .32-9.34.02-18.06-.45-25.05l2.25-1.03 1.55-11.62-27.11-19.11c11.36 31.5 6.97 64.55 6.97 64.55-32.53-19.37-28.4-37.44-28.4-37.44l3.36-2.32 10.84-45.96-1.81-2.84-39.75 20.91c5.17 5.82-16.09 55.32-23.26 71.55l-8.49.23 1.03-2.32L23.8 115l41.18 12.39-1.1-2.06 12.95.06-40.06 45.38-3.1-.26c-21.95 22.72-24.79 19.62-24.79 19.62 3.62 18.59 2.32 45.44 2.32 45.44 2.84 2.32 6.97-1.29 6.97-1.29 9.55-10.59 25.82-37.18 25.82-37.18 4.6-6.72 9.36-12.65 14.23-17.91-1.56 12.6-9.77 38.5-9.77 38.5 13.17-14.81 37.09-32.82 37.09-32.82l-3.58-.1c7.75-10.26 13.75-15.69 13.75-15.69l2.13 2.13 13.56-11.23-1.84-2.71c28.01-22.57 60.73-8.89 71.23-3.46-16.76 18.72-30.91 31.28-30.91 31.28l-2.84-.65-5.16 29.82 1.68 1.81 26.91-23.16-17.23 23.8 1.29 8.52 20.66-34.34-2.32-1.29-1.53 2.11.11-2.5c6.91-6.88 13.63-12.69 20.17-17.56 7.19 27.09 17.4 45.32 17.4 45.32l-25.05-5.17 3.87 9.55c53.71 23.5 48.03 32.79 48.03 32.79l17.04-18.85c-11.36-23.76-10.85-53.45-10.85-53.45l2.58-2.07c.4-12.08 3.16-25.11 4.36-30.26 3.73-.06 7.32.17 10.79.63l-7.14 3.04-8 30.73 2.58-.77 14.97-32.63c35.01 5.8 55.66 35.08 55.66 35.08l-11.49-2.45 4.91 11.75c45.32 19.11 43.64 24.53 43.64 24.53l11.36-17.43c-7.87-13.82-11.62-28.25-12.96-41.82 1.21.36 2.43.71 3.67 1.03 0 0 13.81-8.52 26.34-19.62 0 0-8.26 0-8.01-3.74 0 0-1.68-2.45 6.46-14.59 0 0 4.77-6.33 8.78-14.98 0 0-3.1 43.12 28.92 97.34l-24.53-3.87 5.16 11.88s67.14 23.5 60.42 33.82l12.39-15.75s-4.91-20.4 4.13-45.7l3.87-2.07 3.52-7.37c.44.02.88.04 1.33.07l-6.92 12.73 4.65-1.55 7.28-10.73c15.5 1.85 35.27 8.37 57.79 25.19l-3.87.52s22.46 2.84 40.02 14.72c0 0-9.55-12.59-16.27-24.98L554 185.5l.15-.25-.05.11 23.24 11.62 1.26-2.81c24.59 14.52 43.4 31.34 47.54 36.12 5.04 5.81-3.49 7.36-3.49 7.36 21.5-.97 58.48 2.71 58.48 2.71l1.55-3.1c-21.68-17.43-43.37-41.06-43.37-41.06zM302.6 89.56c1.29-10.2 4.13-20.92 4.13-20.92.05-.2.1-.38.15-.58 3.92.56 13.04 2.11 22.67 5.51-.78 7.11-9.2 16.69-9.2 16.69-5.76 5.62-11.41 9.75-16.86 12.69l-.01-.03c-1.58-8.16-.88-13.36-.88-13.36zm9.69 17.69-4.73 8.8-2.11-5.57c4.36-1.7 6.84-3.23 6.84-3.23zm-35.96-34.29-1.49-28.33c8.52 10.34 5.63 20.99 1.49 28.33zm5.68 23.7c-.34 3.77-.01 8.02.78 12.53-3.43.24-6.7.09-9.76-.34 0 0-.58.55-.1-.03 7.49-8.83 9.08-12.16 9.08-12.16zm-114.64 11.43c10.26-6.58 21.5-23.05 21.5-23.05-3.2 13.19-4.36 26.29-4.16 38.84-10.26-8.83-21.99-15.41-21.99-15.41l4.65-.38zm-35.18 7.17.41-1.08c6.06 3.56 10.56 5.73 10.56 5.73 18.33 10.33 12.91 18.85 12.91 18.85-44.15-5.42-75.66 15.49-75.66 15.49l25.56-28.66-2.58 10.59 6.2 4.13c10.49-12.78 17.73-20.32 22.6-25.05zm-40.95-5.86.08-.09-.06 4.58-.26.07.24-4.56zm3.38-10.93c4.39-7.75 6.71-15.23 6.71-15.23 1.17 6.81 7.39 13.69 14.7 19.62l-31.41 1.1 10-5.49zm-25.44 70.16c11.84-10.17 23.97-16.77 35.49-20.98-15.45 5.83-27.53 14.29-35.49 20.98zm98.58-24.62a111.4 111.4 0 0 0-14.61-2.61c9.08.84 14.61 2.51 14.61 2.51l1.16-2.13-1.16 2.23zm40.85-36.07 2.52-1.47c.5-3.41 1.04-6.5 1.59-9.31l19.86-2.84-12.34 5.82c-3.98 7.21-8.54 14.32-13.38 21.19.44-8.39 1.75-13.39 1.75-13.39zm26.18 38.83c-14.05 1.67-23.46 5.66-23.46 5.66 2.04-3.5 4.01-7.08 5.92-10.65 6.37 2.54 12.48 4.07 17.54 4.99zm-8.74 11.6c-2.58 21.95-2.14 29.2-2.14 29.2-5.85-9.84-9.78-19.4-12.41-28.29 11.72-5.84 22.67-8.72 32.75-9.51l-18.2 8.6zm23.59-59.29s-1.07-.6-2.94-2.16l-7.49 2.84c1.41 1.08 2.82 2.08 4.23 3.02-3.83 1.92-7.2 3.84-10.17 5.71 4.69-10.71 7.5-18.02 7.5-18.02l-5.85 2.76 2.5-3.53-19.11 1.55-5.56 5.81c3.41-17.35 7.4-23.69 7.4-23.69l16.24 12.72 2.84-8.52c-4.67-8.65-8.49-15.99-11.62-22.23 7.07 2.75 12.01 4.93 12.01 4.93l-1.42-2.84h10.84l23.86 20.72c-2.05 2.65-3.72 4.2-3.72 4.2-9.05 8.76-15.43 13.84-19.54 16.73zm1.93 47.1c9.81-5.59 19.79-14.66 19.79-14.66-13.75-4.65-3.87-16.46-3.87-16.46l1.26-1.41.17.01c5.36 1.09 10.43 1.4 15.09 1.23 6.31 25.68 24.54 56.51 24.54 56.51-18.55-18.36-39.38-24.34-56.98-25.22zm112.1-39.06s-2 1.32-6.18 3.73c2.17-8.37 4.24-13.41 4.24-13.41l-16.2 8.13c-2.02 4.7-3.8 9.64-5.36 14.52-2.24 1.12-4.65 2.31-7.23 3.55 0 0-11.23 5.42-11.62 9.81 0 0-2.32 10.07 6.46 15.88 0 0 1.72.98 4.6 2.41-.67 3.65-.99 5.85-.99 5.85-8.52-10.84-20.91-35.25-20.91-35.25-.79-1.48-1.49-2.93-2.14-4.36l6.59 1.71c-2.52-4.45 18.01-19.17 18.01-19.17 18.98-15.11 20.72-17.62 20.72-17.62 1.58-1.52 2.19-2.9 2.28-4.07h3.08l18.83 15.65.25.23c-3.13 3.98-7.72 8.38-14.43 12.41zm20.92-24.92s-.53 3.01-2.98 7.34l-.89-19.99c-.01 0 5.8 4 3.87 12.65zm165.83-12.07s.14 3.86-3.36 9.23h-.19l-.32-17.56s4.65 2.72 3.87 8.33zm-78.82 5.62s1.81-5.42 1.16-9.68l11.49 14.59 15.24 6.46s-2.1-4.4-4.91-10.71l8.2 9.62h38.79c-2.09 1.82-5.05 3.79-8.2 5.42 0 0-27.89 12.78-29.63 15.88 0 0-4.84 6.39 3.1 14.91l-29.82-25.37h-8.13l.78-2.52s-2.03.99-5.31 2.43c2.77-6.46 5.78-14.33 7.24-21.03zm-1.74 45.9-.58-2.91h11.43l9.23 4.26s-24.98-2.58-39.25 8.52c0 0-.56.38-1.49 1.07.89-3.12 3.16-10.38 7.16-18.91 6.1 2.06 11.34 4.69 13.5 7.97zm-21.11 55.05c2.44 1.68 4.66 3.35 6.2 4.79 0 0 1.22-.64 3.53-1.46-1.63 3.98-3.16 8.83-3.92 14.24 0 0-3.32-6.99-5.81-17.57zm45.24-4.37.14-.21c28.04-.18 49.8 6.56 57.8 9.44-8.52-3-31.25-9.92-57.94-9.23zm35.97-24.8c-7.17-.97-26.4-1.1-26.4-1.1-14.91.39-14.33-6.2-14.33-6.2.77-8.33 19.56-4.84 19.56-4.84 14.33 2.52 25.3 11.1 25.3 11.1l11.1-4.39c-19.11-10.59-19.95-17.95-19.95-17.95-.97-3.49 11.04-12.2 11.04-12.2 5.04-4.07 8.72-7.55 8.72-7.55-6.78 18.01-5.62 34.08-5.62 34.08l15.69 4.45c-.38-.49.03-1.56 1.01-3.01l.74 1.65 8.21 14.93c-20.61-7.68-35.07-8.97-35.07-8.97zm40.11 11.14 2.04-1.78-1.55-10.65 13.17 18.98c-4.83-2.5-9.39-4.66-13.66-6.55z"/><path fill="#181723" d="m588.18 116.8 24.79-5.03 6.2-13.17-31.76 13.94zM538.61 43.21l-12.78-29.04-8.91-1.17 18.2 29.83z"/></svg>