<svg xmlns="http://www.w3.org/2000/svg" xml:space="preserve" viewBox="0 0 206.39 241.73"><path fill="#F4F4F5" d="M80.49 61.33s5.81 4 3.87 12.65c0 0-.53 3.01-2.98 7.34l-.89-19.99zm73.85 124.72s-14.33-30.08-5.81-60.03c0 0 2.84-11.49 9.68-24.79 0 0 10.07-19.5 13.17-33.7 0 0 1.81-5.42 1.16-9.68l11.49 14.59 15.24 6.46s-25.56-53.45-17.43-55.13L152.01 3.62l-12.78 11.23s11.88 17.94 8.65 37.96c0 0-4.26 19.11-14.46 38.73 0 0-6.33 13.43-10.07 29.95 0 0-2.84 16.78-.77 25.56 0 0-8-13.94-10.33-42.09 0 0-.77-5.16 1.55-23.5 0 0 2.07-17.56-1.81-21.43l20.14 7.23-3.87-8.52S75.33 31.63 79.72 23.37l-5.42 3.61 5.2 52.84L58.77 47.9H45.11l1.03-2.32S18.06 59.59 4.63 59.59c0 0 24.79 2.61 41.25 13.88l-1.26-2.84H58.8l18.83 15.65.25.23c-3.13 3.96-7.72 8.35-14.43 12.38 0 0-9.55 6.33-30.73 16.53 0 0-11.23 5.42-11.62 9.81 0 0-2.32 10.07 6.46 15.88 0 0 14.07 8 29.18 11.88 0 0 13.81-8.52 26.34-19.62 0 0-8.26 0-8.01-3.74 0 0-1.68-2.45 6.46-14.59 0 0 4.77-6.33 8.78-14.98 0 0-3.1 43.12 28.92 97.34l-24.53-3.87 5.16 11.88s67.14 23.5 60.42 33.82l12.39-15.75s-4.91-20.4 4.13-45.7l3.87-2.07 13.56-28.4-30.08 13.43s-7.75 10.59-9.81 25.31z"/><path fill="#F4F4F5" d="m55.7 154.29 26.6-15.24 8 3.62-29.95 13.68zM178.61 181.14l14.46-26.6 9.81-3.87-19.63 28.92z"/></svg>