<?xml version="1.0" encoding="utf-8"?>
<!-- Generator: Adobe Illustrator 24.3.0, SVG Export Plug-In . SVG Version: 6.00 Build 0)  -->
<svg version="1.1" id="Layer_1" xmlns="http://www.w3.org/2000/svg" xmlns:xlink="http://www.w3.org/1999/xlink" x="0px" y="0px"
	 viewBox="0 0 234.96 225.56" enable-background="new 0 0 234.96 225.56" xml:space="preserve">
<path fill="#F4F4F5" d="M229.11,199.99c-27.63-48.54-4.52-104.57-4.52-104.57l-16.2,8.13c-9.94,23.11-14.14,52.03-14.14,52.03
	c-8.52-10.84-20.91-35.25-20.91-35.25c-0.79-1.48-1.49-2.93-2.14-4.36l6.59,1.71c-2.52-4.45,18.01-19.17,18.01-19.17
	c18.98-15.11,20.72-17.62,20.72-17.62c5.04-4.84,0.19-8.2,0.19-8.2c-8.52,1.55-24.27-2.84-24.27-2.84c0.65,7.17-9.23,18.4-9.23,18.4
	c-5.76,5.62-11.41,9.75-16.86,12.69l-0.01-0.03c-1.58-8.17-0.88-13.37-0.88-13.37c1.29-10.2,4.13-20.92,4.13-20.92
	c4.78-17.17-3.62-20.79-3.62-20.79l22.34,7.23l-3.62-9.81c-23.37-13.82-53.97-40.93-53.97-40.93l-6.58,5.68l7.36,26.47l2.58,0.9
	l2.58,28.66l-24.79-31.37h-11.75l1.16-2.07c-10.33,6.07-38.34,13.68-38.34,13.68c17.56,4.26,39.51,13.94,39.51,13.94l-1.42-2.84
	h10.84l23.86,20.72c-2.05,2.64-3.72,4.2-3.72,4.2c-9.04,8.78-15.41,13.86-19.53,16.75c0,0-1.07-0.6-2.94-2.16l-7.49,2.84
	c1.41,1.08,2.82,2.08,4.23,3.02c-3.83,1.92-7.2,3.84-10.17,5.71c4.69-10.71,7.5-18.02,7.5-18.02l-20.53,9.68
	c-24.4,44.15-70.36,84.95-70.36,84.95l-2.84-0.65l-5.16,29.82l1.68,1.81l27.76-23.89l0.13-2.97c87.53-87.15,146.41-3.62,146.41-3.62
	l-11.49-2.45l4.91,11.75c45.32,19.11,43.64,24.53,43.64,24.53L229.11,199.99z M74.18,150.42c2.04-3.5,4.01-7.08,5.92-10.65
	c6.37,2.53,12.48,4.06,17.54,4.98C83.59,146.42,74.18,150.42,74.18,150.42z M139.19,70.94l-1.49-28.33
	C146.22,52.95,143.33,63.6,139.19,70.94z M135.79,106.81c7.48-8.85,9.08-12.17,9.08-12.17c-0.34,3.77-0.01,8.02,0.78,12.53
	c-3.43,0.24-6.7,0.09-9.76-0.34C135.89,106.84,135.3,107.38,135.79,106.81z M114.43,144.16c9.81-5.59,19.79-14.66,19.79-14.66
	c-13.75-4.65-3.87-16.46-3.87-16.46c0.43-0.48,0.85-0.95,1.26-1.41l0.17,0.01c5.36,1.09,10.43,1.4,15.09,1.23
	c6.31,25.68,24.54,56.51,24.54,56.51C152.85,151.02,132.03,145.04,114.43,144.16z M175.14,105.23l-4.73,8.8l-2.11-5.57
	C172.66,106.76,175.14,105.23,175.14,105.23z"/>
<polygon fill="#F4F4F5" points="109.62,5.66 118.97,9.34 130.94,33.61 127.57,33.66 "/>
<polygon fill="#F4F4F5" points="100.26,87.67 97.16,92.06 75.47,95.16 81.16,89.22 "/>
<polygon fill="#F4F4F5" points="35.71,187.6 16.09,214.71 17.38,223.23 38.03,188.89 "/>
</svg>
