<?xml version="1.0" encoding="utf-8"?>
<!-- Generator: Adobe Illustrator 24.3.0, SVG Export Plug-In . SVG Version: 6.00 Build 0)  -->
<svg version="1.1" id="Layer_1" xmlns="http://www.w3.org/2000/svg" xmlns:xlink="http://www.w3.org/1999/xlink" x="0px" y="0px"
	 viewBox="0 0 260.53 237.59" enable-background="new 0 0 260.53 237.59" xml:space="preserve">
<path fill="#F4F4F5" d="M213.02,188.6l-4.65-0.77c-25.17-31.37-36.99-48.61-36.99-48.61h14.33l-1.55,3.68
	c15.1-10.65,41.83-14.91,41.83-14.91c-22.46-3.87-41.64-13.94-41.64-13.94l1.16,3.49h-39.89h-2.13c7.77-7.51,16.2-14.01,16.2-14.01
	l2.97,0.26c15.11-11.23,26.73-18.01,26.73-18.01V55.95l-2.32-0.19c-18.2,15.49-49.19,45.06-49.19,45.06
	c1.94-9.55,6.58-28.4,6.58-28.4c3.36-11.62,4.13-18.46,4.13-18.46c1.29-6.97-5.42-11.62-5.42-11.62l17.3,6.2l9.55-3.61
	c-3.36,1.55-62.74-41.57-62.74-41.57l-3.1,1.81c0,0,5.42,13.68,8,27.11l1.87,0.84c0,0,3.49,21.11,3.1,36.41l-4.26-12.2H58.48
	l18.01,21.11h38.79c-2.09,1.82-5.05,3.79-8.2,5.42c0,0-27.89,12.78-29.63,15.88c0,0-4.84,6.39,3.1,14.91L50.74,89.26H42.6l0.78-2.52
	c0,0-26.92,13.17-43.38,13.17c0,0,36.79,3.87,43.57,14.14l-0.58-2.91h11.43l9.23,4.26c0,0-24.98-2.58-39.25,8.52
	c0,0-13.94,9.55-20.91,20.53l3.87,15.3c0,0,15.49,8.71,21.3,14.14c0,0,38.6-20.27,93.6,20.79l-3.87,0.52c0,0,22.46,2.84,40.02,14.72
	c0,0-9.55-12.59-16.27-24.98l-14.43-7.02l1.52-2.6c0,0-29.76-12.36-65.52-10.42v-0.29c37.76-1.16,65.26,10.65,65.26,10.65
	l-1.16,2.52l23.24,11.62l1.26-2.81c24.59,14.52,43.4,31.34,47.54,36.12c5.04,5.81-3.49,7.36-3.49,7.36
	c21.5-0.97,58.48,2.71,58.48,2.71l1.55-3.1C234.71,212.23,213.02,188.6,213.02,188.6z M103.67,139.93c-7.17-0.97-26.4-1.1-26.4-1.1
	c-14.91,0.39-14.33-6.2-14.33-6.2c0.77-8.33,19.56-4.84,19.56-4.84c14.33,2.52,25.3,11.1,25.3,11.1l11.1-4.39
	c-19.11-10.59-19.95-17.95-19.95-17.95c-0.97-3.49,11.04-12.2,11.04-12.2c5.04-4.07,8.72-7.55,8.72-7.55
	c-6.78,18.01-5.62,34.08-5.62,34.08l15.69,4.45c-0.38-0.49,0.03-1.56,1.01-3.01l0.74,1.65l8.21,14.93
	C118.13,141.22,103.67,139.93,103.67,139.93z M143.79,151.07l2.04-1.78l-1.55-10.65l13.17,18.98
	C152.61,155.12,148.06,152.95,143.79,151.07z M124.13,62.53c0,0,0.14,3.86-3.36,9.23h-0.19l-0.32-17.56
	C120.26,54.2,124.91,56.91,124.13,62.53z"/>
<polygon fill="#F4F4F5" points="161.12,104.94 192.88,91 186.69,104.17 161.9,109.2 "/>
<polygon fill="#F4F4F5" points="90.63,5.4 99.54,6.56 112.32,35.61 108.83,35.23 "/>
</svg>
