<?xml version="1.0" encoding="utf-8"?>
<!-- Generator: Adobe Illustrator 24.3.0, SVG Export Plug-In . SVG Version: 6.00 Build 0)  -->
<svg version="1.1" id="Layer_1" xmlns="http://www.w3.org/2000/svg" xmlns:xlink="http://www.w3.org/1999/xlink" x="0px" y="0px"
	 viewBox="0 0 259.77 247.74" enable-background="new 0 0 259.77 247.74" xml:space="preserve">
<path fill="#F4F4F5" d="M165.31,45.95L138.2,26.84c11.36,31.5,6.97,64.55,6.97,64.55c-32.53-19.37-28.4-37.44-28.4-37.44l3.36-2.32
	l10.84-45.96l-1.81-2.84L89.4,23.75c5.17,5.82-16.09,55.32-23.26,71.55l-8.49,0.23l1.03-2.32l-40.35,12.91l41.18,12.39l-1.1-2.06
	l13.04,0.06l12.27-13.88l2.13-2.19l-0.06,4.58l-0.26,0.06l0.26-4.91L31.3,161.89l-3.1-0.26C6.25,184.35,3.41,181.25,3.41,181.25
	c3.62,18.59,2.32,45.44,2.32,45.44c2.84,2.32,6.97-1.29,6.97-1.29c9.55-10.59,25.82-37.18,25.82-37.18
	c51.38-75.14,123.75-53.19,123.75-53.19l1.16-2.13l-1.16,2.23c-66.23-16.46-109.51,35.15-109.51,35.15
	c-1.55,12.59-9.78,38.54-9.78,38.54c13.17-14.81,37.09-32.82,37.09-32.82l-3.58-0.1c7.75-10.26,13.75-15.69,13.75-15.69l2.13,2.13
	l13.56-11.23l-1.84-2.71c33.89-27.31,74.65-1.55,74.65-1.55l3.44-1.85c6.49,36.61,21.35,63.11,21.35,63.11l-25.05-5.17l3.87,9.55
	c53.71,23.5,48.03,32.79,48.03,32.79l17.04-18.85c-11.36-23.76-10.85-53.45-10.85-53.45l2.58-2.07c0.52-15.49,4.91-32.53,4.91-32.53
	l-23.5,11.1c-2.58,21.95-2.14,29.2-2.14,29.2c-25.15-42.33-15.3-79.64-15.3-79.64l2.52-1.47c3.61-24.53,9.01-33.11,9.01-33.11
	L230.9,77.2l2.84-8.52c-29.46-54.6-25.45-57.25-25.31-57.32l-19.36,9.29c-6.97,47.77-27.11,63-27.11,63
	c0.32-9.34,0.02-18.06-0.45-25.05l2.25-1.03L165.31,45.95z M89.14,89.59c4.39-7.75,6.71-15.23,6.71-15.23
	c1.17,6.81,7.39,13.69,14.7,19.62l-31.41,1.1L89.14,89.59z M157.24,99.6l4.65-0.39c10.26-6.58,21.5-23.05,21.5-23.05
	c-3.2,13.19-4.36,26.29-4.16,38.84C168.97,106.17,157.24,99.6,157.24,99.6z M150.59,129.87c-44.15-5.42-75.66,15.49-75.66,15.49
	l25.56-28.66l-2.58,10.59l6.2,4.13c10.49-12.77,17.73-20.31,22.59-25.05l0.41-1.08c6.06,3.56,10.56,5.73,10.56,5.73
	C156.01,121.35,150.59,129.87,150.59,129.87z"/>
<polygon fill="#F4F4F5" points="135.36,12.13 147.23,4.12 148.27,6.7 123.48,54.99 120.38,57.05 "/>
<polygon fill="#F4F4F5" points="110.05,149.49 97.92,164.73 99.72,166.28 112.12,150.78 "/>
<polygon fill="#F4F4F5" points="239.16,175.06 247.16,144.33 257.49,139.94 241.74,174.28 "/>
</svg>
