<?xml version="1.0" encoding="utf-8"?>
<!-- Generator: Adobe Illustrator 24.3.0, SVG Export Plug-In . SVG Version: 6.00 Build 0)  -->
<svg version="1.1" id="Layer_1" xmlns="http://www.w3.org/2000/svg" xmlns:xlink="http://www.w3.org/1999/xlink" x="0px" y="0px"
	 viewBox="0 0 206.39 241.73" enable-background="new 0 0 206.39 241.73" xml:space="preserve">
<path fill="#F4F4F5" d="M80.49,61.33c0,0,5.81,4,3.87,12.65c0,0-0.53,3.01-2.98,7.34L80.49,61.33z M154.34,186.05
	c0,0-14.33-30.08-5.81-60.03c0,0,2.84-11.49,9.68-24.79c0,0,10.07-19.5,13.17-33.7c0,0,1.81-5.42,1.16-9.68l11.49,14.59l15.24,6.46
	c0,0-25.56-53.45-17.43-55.13L152.01,3.62l-12.78,11.23c0,0,11.88,17.94,8.65,37.96c0,0-4.26,19.11-14.46,38.73
	c0,0-6.33,13.43-10.07,29.95c0,0-2.84,16.78-0.77,25.56c0,0-8-13.94-10.33-42.09c0,0-0.77-5.16,1.55-23.5c0,0,2.07-17.56-1.81-21.43
	l20.14,7.23l-3.87-8.52c0,0-52.93-27.11-48.54-35.37l-5.42,3.61l5.2,52.84L58.77,47.9H45.11l1.03-2.32c0,0-28.08,14.01-41.51,14.01
	c0,0,24.79,2.61,41.25,13.88l-1.26-2.84H58.8l18.83,15.65l0.25,0.23c-3.13,3.96-7.72,8.35-14.43,12.38c0,0-9.55,6.33-30.73,16.53
	c0,0-11.23,5.42-11.62,9.81c0,0-2.32,10.07,6.46,15.88c0,0,14.07,8,29.18,11.88c0,0,13.81-8.52,26.34-19.62c0,0-8.26,0-8.01-3.74
	c0,0-1.68-2.45,6.46-14.59c0,0,4.77-6.33,8.78-14.98c0,0-3.1,43.12,28.92,97.34l-24.53-3.87l5.16,11.88c0,0,67.14,23.5,60.42,33.82
	l12.39-15.75c0,0-4.91-20.4,4.13-45.7l3.87-2.07l13.56-28.4l-30.08,13.43C164.15,160.74,156.4,171.33,154.34,186.05z"/>
<polygon fill="#F4F4F5" points="55.7,154.29 82.3,139.05 90.3,142.67 60.35,156.35 "/>
<polygon fill="#F4F4F5" points="178.61,181.14 193.07,154.54 202.88,150.67 183.25,179.59 "/>
</svg>
