<svg xmlns="http://www.w3.org/2000/svg" xml:space="preserve" style="enable-background:new 0 0 1188 100" viewBox="0 0 1188 100"><circle cx="255.51" cy="60.03" r="11.03" style="fill:#262631" transform="rotate(-9.213 255.485 60.005)"/><circle cx="12.77" cy="53.25" r="10.83" style="fill:#262631" transform="rotate(-9.213 12.777 53.247)"/><circle cx="1149.3" cy="88.13" r="10.87" style="fill:#262631"/><circle cx="1083.31" cy="64.72" r="4.51" style="fill:#262631" transform="rotate(-13.286 1083.085 64.737)"/><path d="M28.92 55.13c-2.29 0-4.15 1.86-4.15 4.15s1.86 4.15 4.15 4.15 4.15-1.86 4.15-4.15c0-2.3-1.86-4.15-4.15-4.15zM272.36 57.13c-2.29 0-4.15 1.86-4.15 4.15s1.86 4.15 4.15 4.15 4.15-1.86 4.15-4.15c0-2.3-1.86-4.15-4.15-4.15z" style="fill:#262631"/><circle cx="343.06" cy="81.04" r="4.96" style="fill:#262631"/><path d="M335.57 85.01c-9.7 0-17.93 6.28-20.86 14.99h41.73c-2.94-8.71-11.17-14.99-20.87-14.99z" style="fill:#262631"/><circle cx="437.44" cy="32.86" r="4.51" style="fill:#262631" transform="rotate(-45.001 437.444 32.861)"/><path d="M1135.12 0h-44.3c-.18 1.18-.28 2.39-.28 3.62 0 13.08 10.6 23.67 23.67 23.67 11.78 0 21.55-8.61 23.37-19.88 1.53 3.44 3.52 6.64 5.9 9.49-6 .09-10.85 4.97-10.85 11 0 6.08 4.93 11.01 11.01 11.01s11.01-4.93 11.01-11.01c0-.6-.06-1.18-.15-1.75a40.447 40.447 0 0 0 20.18 5.38c4.66 0 9.13-.8 13.3-2.24V0h-52.86zM272.28 0H64.87c15.1 26.05 43.29 43.58 75.57 43.58 16.67 0 32.25-4.68 45.5-12.79-.11.62-.18 1.25-.18 1.9 0 5.93 4.81 10.74 10.74 10.74 5.93 0 10.74-4.81 10.74-10.74 0-5.48-4.1-9.98-9.4-10.64 3.72-3.25 7.16-6.81 10.28-10.64 5.22 11.76 16.99 19.96 30.68 19.96 17.79 0 32.35-13.86 33.48-31.37zM470.74 76.42c7.68-4.03 12.92-12.08 12.92-21.36 0-13.32-10.79-24.11-24.11-24.11s-24.11 10.79-24.11 24.11c0 4.15 1.05 8.05 2.89 11.45-3.17-.34-6.4-.52-9.66-.52-21.33 0-40.92 7.42-56.35 19.82.67-1.42 1.06-3.01 1.06-4.68 0-6.08-4.93-11.01-11.01-11.01s-11.01 4.93-11.01 11.01 4.93 11.01 11.01 11.01c1.2 0 2.36-.2 3.44-.56-2.71 2.64-5.23 5.46-7.59 8.41h140.91a90.622 90.622 0 0 0-28.39-23.57z" style="fill:#262631"/></svg>