<svg xmlns="http://www.w3.org/2000/svg" xml:space="preserve" id="paint-splat" x="0" y="0" style="enable-background:new 0 0 289.49 452.87" version="1.1" viewBox="0 0 289.49 452.87"><style>.st0{fill-rule:evenodd;clip-rule:evenodd;fill:#f1f1f1}</style><path id="main-splat" d="M61.36 305.74c.48-1.95-.76-4.32 1.22-5.65.27-1.32-1.16-1.54-1.04-2.82.27-2.95.09-5.94.08-8.92-.01-2.47-1.16-5.89-2.68-8.81-.63-1.21-.22-2.93-1.81-3.7-.64.75-1.48 1.1-2.51.93v-1c.48.08.78-.14.89-.59.02-.08-.22-.31-.29-.29-.46.1-.68.41-.59.89-.28.11-.76.18-.8.34-.14.6.31.7.79.66v2.51c-1.27.98-2.39.77-3.48-.52-.18.23-.47.43-.5.66-.21 1.56-2.26 3.08.27 5.04-2.82.04-3.21 2.28-4.06 3.92-4.63-.69-8.92-1.66-13.23-3.04.45-.49.87-.94 1.44-1.54h8.37c.43-4 5.36-6.13 4.01-10.72-1.94-1.31-1.94-1.31-4.13-.48-1-1.45-3.21-.08-4.14-1.81l-1.38 1.32c-.19 4.21-.21 4.28-2.52 7.56-.41.03-.88.09-1.35.1-.64.02-1.29 0-1.87 0-.18-.44-.36-.71-.4-1.01-.38-3.35.82-6.83-.97-10.08-.5-.91.3-1.76.87-2.51l-3.29-3.29-1.66 1.06c-1.48-1.15-3.01-2.54-4.96-3.18-.11-.28-.17-.76-.34-.79-.6-.14-.7.31-.66.79-1.06.14-1.73 1.49-3 1v-1c.69.03 1.03-.31 1-1 .28-.11.76-.17.79-.34.14-.6-.31-.7-.8-.66.08-.48-.14-.79-.59-.89-.08-.02-.31.22-.29.29.1.46.41.68.89.59v1c-.69-.03-1.03.31-1 1-1.08.34-1.8-.6-3-.9v1.9c-.48-.08-.78.14-.89.59-.02.08.22.31.29.29.46-.1.68-.41.59-.89.81-.13.99.68 1.5.98.51-.31.69-1.11 1.5-.99-.16.63.42.83.89 1.46-1.72 1.05-2.65 3.11-4.89 3.54-.09-1.5-1.24-.85-2-1 .08-.48-.14-.79-.59-.89-.08-.02-.31.22-.29.29.1.46.41.68.89.59-.29.57-.57 1.14-.84 1.67 1.4 1.13 1.82-.82 2.84-.67-.16.63.41.83.69 1.2.4.53.6.26.26.27-1.83.01-1.79 2.31-2.51 2.74-1.87-.48-1.06-1.77-1.88-2.15-.59.22-.75 1.11-1.57.95.08-.48-.14-.79-.59-.89-.08-.02-.31.22-.29.29.1.46.41.68.89.59v1.5c-.69.84-1.59-1.02-2.57.38-.78 1.1-1.57-1.33-2.96-.94-1.08.3-2.31.06-3.47.06v-2c.69.03 1.03-.31 1-1h.99c.15.61-.31 1.33.59 2.03.63-.46 1.69.57 2.42-.6-.04-.47.15-1.01-.46-1.37-.32.27-.66.56-.94.8-.68-.05-.76-1.08-1.6-.87.03-.7-.3-1.03-.99-1 .03-.69-.31-1.03-1-1v-1c.28-.11.76-.17.79-.34.14-.6-.31-.7-.79-.66v-4c.61.11.92-.26.98-.76.08-.67-.04-1.31-.98-1.24v-8c.61-.21 1.58.52 1.95-1H-.35v-85h1.47c1.39-1.79-.08-2.78-.47-4 .81.12.99-.68 1.5-.99.51.31.69 1.11 1.5.99.11.28.17.76.34.79.6.14.7-.31.66-.79.28-.11.76-.17.79-.34.14-.6-.31-.7-.79-.66-.35-.66-.71-1.31-1.08-2 .37-.69.73-1.34 1.08-2 .84-.42.93 1.33 1.88.69-.09-1 1-2.33-.88-2.69-.09-1.5-1.24-.85-2-1 .03-.69-.31-1.03-1-1-.31-1.7-2.24-.97-3-2v-4h3.04c.31.47.84 1.28 1.51 2.32.65-1.7 2.24-1.28 3.06-2.15.42.18.49.87 1.14.6.39-.42.8-.87 1.25-1.35-2.32-2.41-5.53-3.6-7.38-6.43-.41.36-.76.66-1.05.92-1.1-.16 0-2.08-1.57-1.9v-3c1.7.65 2.61 2.22 3.84 3.4.69.66 1.39.58 2.16.6v1.63c2.34.08 2.98 2.71 5 3.37.09 1.5 1.24.85 2 1 .11.28.17.76.34.79.6.14.7-.31.66-.79.81.16.97-.73 1.55-.95.48.37.77 1.09 1.73.92 1.06-.48.86-2.62 3.42-2.35-2.15-.97-4.76-.33-4.71-3.14 1.31-.97 2.43-.72 3.43.43 1.07-.36 1.3-1.85 2.59-1.91-.08.48.14.79.59.89.08.02.31-.22.29-.29-.1-.46-.41-.68-.89-.59-.09-1.4-1.96-1.63-2.02-3.57 2.52-2.01 5.27-4.23 8.06-6.41.2-.16.63-.02.96-.02.46.96.93 1.93 1.4 2.9 1.46-.54-.16-2.21 1.11-2.85.25-.02.57-.04.92-.06 1.41 1.03-.21 2.88 1.02 3.97 1.4-.54-.53-2.79 1.63-2.91 1.23.99 1.23.99 2.89.06-1.13 0-2.05 0-2.89-.06.1-2-1.91-3.55-.76-5.88l1.13-1.13c1.07.21-.05 2.16 1.56 1.94v1c-.61-.11-.92.26-.98.76-.08.67.04 1.31.98 1.24-.08.48.14.79.59.89.08.02.31-.22.29-.29-.1-.46-.41-.68-.89-.59v-2c.69.03 1.03-.31 1-1 .37.21.76.39 1.11.62.9.6 1.64.75 1.89-.62h1.54c1.14-1.3-2.18-1.39-.44-2.56-.98-.55-1.03.22-1.54.39-1.1-.24-.33-1.23-.56-1.83.76-.15 1.91.5 2-1 .33 0 .67 0 .94-.2.24.85-.4 1.74.89 2.21.12-.76.47-1.42-.89-2.21-.05-.07-.11-.55-.28-.59-.6-.14-.7.31-.66.79-.76.15-1.91-.5-2 1h-3c-.27-2.17-3.01.06-3.37-1.92-1.57.77.19 2.17-.32 3.37l-3.39 2.04c-1.21.46-1.78-1.16-2.92-1.98v-3.5c1.15 0 2.3.02 3.45-.03.15-.01.27-.4.41-.62-.6-.24-1.16-.46-1.72-.68.09-1.11 1.76-1.19 1.55-2.53-1.68-.75-2.27 1.47-3.69 1.35v2.51c-1.25.05-2.64-.4-3.55.96-.61-1.06-1.62-.99-2.87-.95-1-1.27-2.1-2.67-3.76-4.77.05.29.5-.17 1.16-.62-2.73-1.75 1.46-3.33-.12-4.87 1.48-1.86 3.17-3.01 5.15-3.75.44 1.34 1.15 2.35 2.6 2.01.69 1.53 1.26 2.78 1.93 4.25 4.27-2.12 4.9-5.7 4.36-9.86-1.19-.89-2.31-.62-3.36.59-1.56-2.12-5.15-2.16-5.53-5.49v-5.98c.95-1.06 2.12-1.84 2.11-3.66-.01-1.08 1.06-2.18 1.92-3.78v-4.65c.9-.7 1.73-.32 2.32-.36l3.66 3.66c.18.77-.39 1.32-1.13 1.77 1.28.89 2.47.36 3.62.52.34.65.54 1.73 1.06 1.92 1.6.57 3.15 1.66 5.27.83-.47-.96-1.27-1.99-.82-3.25.75-1.06 1.78-.1 3.07-.95-.59 2.45 1.24 3.72.91 5.57-.71 2.42-4.05 2.42-4.6 4.98-.43 1.98-1.76 3.74-1.4 5.9H36.2c-.35 1.22-1.02 2.12-2.46 2.34v2.2c.38.67 1.18.62 1.34.43.71-.83 1.54-1.11 2.57-.96-.08.48.14.79.59.89.08.02.31-.22.29-.29-.1-.46-.41-.68-.89-.59.17-.81-.76-.96-.98-1.72 2.43-1.36 3 3.62 5.56 1.5 1.23-.84 1.71-2.38 2.42-3.78 1.26-.15 1.56-1.52 2.83-2.01 1.32.17 2.85.05 5.13-.69.78.09.49-.29.45-.27-.44.27-1.53-.6-1.33.42.16.81 1.15.77.88-.15-.96-1.55-.96-2.8-.96-4.01 1.15-.23 1.54 1.36 2.74.51.5-1.07.27-2.29.13-3.45-.58-.63-1.26-.25-1.86-.36.6-1.96 2.23-.54 3.29-1 2.28-1.23 2.85-3.5 3.43-5.78-1-.77-1.63.15-2.16.75-.77-.44-.5-.99-.56-1.46.69-1.04 1.89-.12 2.9-.85.04-.46.09-1.09.1-1.29-1.6-1.59-2.98-2.98-3.87-3.86v-5.17c.94-.75 2.13.16 3.1-1.09-1.46-1.37-3.53-2.35-4.04-4.54-.49-2.07-2.53-3.19-2.88-4.93.43-.63.89-1.29 1.17-1.7 1.16-.22 1.47.47 2.07.97.39-.49.79-1 1.38-1.75-.62-.42-1.41-.95-1.81-1.21.57-.98.98-1.68 1.21-2.07 1.99-.03 2.35 1.73 3.55 2.2 1.16-1.15 2.15-2.14 3.06-3.04.34-1.14-1.27-1.21-.75-2.9 1.21-1.47 3.23-2.41 5.79-2.27-.33.67-.67 1.33-1 2-2.23.82-2.4 2.84-2.91 4.66 1.3-1.53 2.78 1.51 3.91-.19v-1.47c.69.03 1.03-.31 1-1 1.79-1.14.88-2.6.8-4h-1.8c.01-1.09 2.15-2.01.25-3.25 1.26-1.25-.02-3.48 1.62-4.17.45-1.37-.9-1.57-.88-2.5-.27-.92 1.09-1.12 1.02-1.98-.9-1.99-1.19-5.44-1.05-7.74.17-2.76.04-5.53.04-8.83 1.07.97 1.64 1.48 2.12 1.91-1.23 2.97-1.23 2.97.15 6.34.76.27.84-.81 1.46-.78.51.02.96-.06 1.27-.52.07-.46-.21-1.01.38-1.35 1.08.92.91 3.55 4.13 2.41-1.17-.66-1.99-1.12-2.9-1.62 1.68-1.28 1.4-2.62 1.37-3.86-.04-1.46.02-2.87 1.02-4.06.48.08.78-.14.89-.59.02-.08-.22-.31-.29-.29-.46.1-.68.41-.59.89-1.44-.26-1.83-1.79-2.97-2.32.32-1.11 1.59-.29 1.94-1.15.37-1-.46-1.44-.96-2.04.47-.46.93-.93 1.44-1.44.34.3.68.59 1.02.89.56-.21.72-1.1 1.53-.94.33.67.67 1.33 1 2-.48-.08-.78.14-.89.59-.02.08.22.31.29.29.46-.1.68-.41.59-.89.6-.12 1.3.28 1.84-.34-.51-1.3-1.45-1.85-2.84-1.67v-2h2c-.08.48.14.79.59.89.08.02.31-.22.29-.29-.1-.46-.41-.68-.89-.59.16-2.38 3.24.47 3.15-2.07.91.5 1.34 1.33 2.29 1.08s1.51.37 2.01.94c3.21-3.04 7.08 2.57 10.12-.94.83 1.45.47 2.56-.5 3.56l1.41 1.41c1.01.39 1.43-.51 2.06-.95l1.41 1.41c.21 1.52.08 3-.73 4.45 1.7.5 2.86-1.99 4.57-.61.52 1.53.31 3-.38 3.98 2.27 3.17 5.11 5.67 7.57 8.22.06.79-.02 1.25-.88 1.61-2.61-1.37-4.21-4.22-6.87-6.17-1.2.03-2.21 1.79-4.12.77.11-1.16 1.94-1.46 1.88-3.07-.58-1.03-2.7-.77-2.96-2.35-.25-1.58-1.16-2.14-2.88-2.41-.36 2.42.29 4.99-1.64 7.13-1.46 0-3.1-.03-4.73.02-.52.02-.9.35-.79.98-.77.12-.97-.63-1.82-1.17.28 1.43-1 2.01-1.18 3.17-.48-.08-.78.14-.89.59-.02.08.22.31.29.29.46-.1.68-.41.59-.89h2c1.49 1.71.78 3.94 1.14 6.18.63-.52.96-.8 1.3-1.08.55.41 1.13.83 2.57 1.9h-5.27c.6.75.87 1.08 1.15 1.43-.15 1.1-1.51.13-1.82 1.01.19.23.38.46.69.85.49.83-1.79 1.53-.38 2.59 1.46-.39 1.31-1.96 2.09-2.85 1.37.54-.55 2.79 1.53 2.97.15.61-.39.81-.73 1.25.93 1.42.51 3.37 1.73 4.75h-2c0 .83 0 1.42.2 1.94-.85.24-1.74-.39-2.21.89.76.12 1.42.47 2.21-.89.46.39 1.13.73 1.8 1.06v1c-.48-.08-.78.14-.89.59-.02.08.22.31.29.29.46-.1.68-.41.59-.89.69.02 1.03-.31 1-1 1.09-.24 1.76-.91 2-2h1.55c1.04-1.13-.38-3.62 2.23-3.93 1.12-.28 1.47.89 2.27 1.48-.8 3.58-3.8 5.48-5.88 7.78v2.5c.49.08 1 .27 1.08.15 2.3-3.21 5.24-5.65 8.96-7.3-1.32-.94-1.39-2.04-1.12-3.28.77-.75 1.71-.43 2.79-.13.06.73.13 1.52.2 2.32.7.98 1.95-.1 2.7.68.41.96.21 1.85.01 2.66-1.88.34-2.27-1.35-3.34-1.86-.52.5-.99.96-1.57 1.52.66.22 1.24.42 1.96.67v6.4c-.84 1.14-2.03 1.88-3.81 1.16.74 2.4.74 2.4 1.91 3.64l-.92 1.04c.76.95 1.73.45 2.65.33.21-.58.43-1.15.7-1.88h4.52v-4.34l2-2c-.05-1.43.84-3.05-.98-4.14 1.07-.69 1.88-.41 2.7-.38.79 1.31.64 2.45-.61 3.41.99 1.98.99 1.98.95 6.05-1.12.74-1.05 2.17-1.83 3.11.53.67 1.25.23 1.86.36-.03.96.34 2.06-1.13 2.35 1.94 2.14 2.34-1.87 4.08.07-.04-2.76.78-4.9-1.46-6.61 1.91-1.21 2.54-2.89 3.57-4.7-1.98-2.5-.55-6.62-3.55-9.1-.71.36-.35 1.17-.72 1.71-2.75-.28-3.29-2.57-4.18-4.68-.36.31-.68.6-1.03.86-.05.04-.23-.1-.34-.15-1.1-1.77 1.89-2.14.79-3.74h2.97v2.52c1.43-.14 2.03 2.1 4 1.21 0-.56.13-1.22-.03-1.79-.22-.81 1.48-.94.62-1.87-.58-.33-.75-1.18-1.59-1.06-.12-.28-.15-.71-.36-.82-3.1-1.73-4.22-4.34-3.49-7.85.27-.45.79-.3 1.31-.33 1.2 1.01.12 2.47.69 3.65.73.84 1.49 1.73 2.85 1.35-.19 1.39.37 2.33 1.77 2.88-.02-1.69 1.45-2.35 2.23-3.48v-3.4c.92-.43 1.84-.87 3-1.42 0-.75 0-1.67-.2-2.58h2.83c.06-.74 1.28-.75 1.16-1.83-1.71-.75-2.8.13-3.99 1.83h-2.43c-.44 1.1-.79 1.96-1.02 2.54.3.66.48 1.06.66 1.46-1.78.74-1.33 2.9-2.54 4h-1.46c.25-2.7-.47-5.42.91-8.11.82-1.6-.51-3.32-1.37-4.86l-1.07.98c-1.56.59-1.71-2.24-3.42-.89v-2.24c.92-1.11 1.75-2.1 2.32-2.77 1.03-.21 1.32.24 1.74.46 1.47.77.4 2.51 1.4 3.45 2.69.14 2.18-2.92 4.01-3.92h2.47c-1.03 4.01 3.68 4.07 4.56 6.87l1.44-1.44c-.66-.7-1.32-1.4-1.93-2.04-.61-1.51.62-2.46 1-3.71-.34-.49-.69-1.01-1.04-1.52 1.46-2.22-.98-4.44.34-6.89.26-.29.79-.89 1.17-1.32.8-.13 1.15.15 1.54.48 1.45 1.24.81 3.33 2.35 4.87-.81.5-1.49.91-2.17 1.33-.11-.09-.45-.38-.8-.67-1.81 2.47 2.21 4.21.71 6.58.33.57.88.3 1.6.41 1.14 3.59-1.87 6.42-1.93 10.06-.54-.42-.87-.68-1.42-1.1-.78 1.34-.2 2.64-.52 4.87 2.07-3.75 6.18-5.13 5.58-9.74.81-.67 1.92-.42 2.92.78 1.19-2.32 3.16-3.08 5.62-2.91.43 3.2-2.09 5.3-3 8-.48-.08-.78.14-.89.59-.02.08.22.31.29.29.46-.1.68-.41.59-.89h2.58c.94 1.27-.21 3.3 1.51 3.95-.34 1.49-1.66.66-2.06 1.53.92 1.05 2.14.29 3.52.6 1.5-1.72 3.12-3.58 4.05-4.65 2-.83 2.31.33 3.05.42 1.34-1.18-.28-1.64-.56-2.35 2.08-1.32 4.15-2.64 6.6-3.33.75.93.12 2.13.38 3.52-2.69-.02-3.23 3.37-5.97 3.51v3.46c.92.62.91-.67 1.34-.64 1.77-.25 2.07 1.61 3.31 1.98 1.26-.98 2.91-.73 4.26-.84 1.64-.13 2.73-2.18 4.57-.97.97.55-.05 1.78.68 2.57.83.22 1.06-1.18 1.97-.76 1.39 0 .28 1.53 1.13 1.86 1.68-.84 3.37-1.67 4.49-3.33-1.57-1.5-.88-3.02.14-4.53h2.48c1.11 1.24.75 2.34-.31 3.35.37.79.75 1.59 1.16 2.45.56.31.6-.46 1.04-.6 2.24.76 1.56 2.69 1.62 4.35-2.16 1.54-3.17-.35-4.36-1.43-2.42.81-1.28 2.99-1.75 4.54-.93.63-1.93.22-2.88.34.08-.48-.14-.79-.59-.89-.08-.02-.31.22-.29.29.1.46.41.68.89.59.11 1.37-1.17.75-1.87 1.35.94 1.53 2.21 2.7 3.86 3.03.05 1.22-.28 1.51-1.09 1.65-1.28.21-2.05-.72-3.18-1.5-1.11 2.14-3.35 2.05-4.74 3.17-1.31 1.06-3.38 1.26-4.02 3.14-.29 1.07 1.28 1.17.94 2.59-.54 1.42-1.78 2.03-3.66 1.32-.43-.73.82-.76.57-1.45-.31-.51-1.15-.45-1.27-.26-1.24 1.79-2.91 3.12-4.52 4.53-.16.14-.02.63-.02 1.07 1.3.1 2.46-1.56 4.01-.15.03 1.75-1.66 2.41-2.52 3.46-.91.21-1.37-.26-1.8-.79-1.18.67-2.6.94-3.49 2.14.82.66 1.65 1.34 3.17 2.57h2.28c.75-.65.17-1.55.35-2.25.97-1.53 2.95-2.22 3.14-4.27.83-.89 2.25.2 3.1-1.01.51-.73 1.06-1.83 2.26-1.29 1-1.11-.18-2.96 1.52-3.55 1.55-.53 2.82-2.2 4.76-1.24.89 1.95-.41 3.57-1.4 4.66-1.15 1.26-1.13 3-2.55 3.72.65 1.32 1.12 2.29 1.71 3.5.51-.72.98-1.37 1.37-1.91 8.85-.64 17.19-3.3 26-3.24v3h-7.61c2.21 1.18 1.41 2.68 1.93 3.74.93.71 2.43-.34 3.09 1.09 1.09-.42 2.11-1.33 3.58-.51V72c1.05 1.11 1.93 2.71 2.64 2.64 1.91-.19 1 1.83 2.06 2.07l1.31-1.31-1.89-2.27c-.28-1.73.98-2.91 1.5-4.34 2.2-.56 1.05 2.18 2.48 2.43-.33.37-.64.72-.95 1.06.34.71 1.15.34 1.71.73.76 1.76.1 3.35-.82 5.07.37.42.79.9 1.31 1.5 1.44-.39 1.92-1.94 3.33-2.61.18.14.51.41.84.67 1.17-2.27 3.14-3.04 5.6-2.86v4.38c-.8 1.37-2.53 1.97-3 3.62-.48-.08-.79.14-.89.59-.02.08.22.31.29.29.46-.1.68-.41.59-.89h2.71c.31 1.43.57 2.95 1.33 4.03-.2 1.46-1.57.56-1.98 1.46.41.43.83.88 1.25 1.33 3.05-.97 4.78-3.56 7.24-5.83.5-.44 1.71.55 2.41-.42-.21-.6-1.11-.76-.95-1.57.61-.13 1.29.28 1.86-.34 1.14-1.21 2.34-2.36 3.52-3.55h4.24c.87.88-.19 2.11.84 2.84.34-.31.69-.62 1.04-.94.58.46.65 1.03.13 2-4.18-.71-7.16 2.08-10.52 4.78v2.86c.88.65.89-.62 1.24-.63 1.85-.3 2.15 1.56 3.31 1.95.83.15 1.28-.32 1.89-1.18.59.88 1.11 1.67 1.63 2.44.65-.58 1.01-.9 1.36-1.21l1.43 1.43c-.32.35-.63.7-.95 1.05 1.24.95 1.39 2.09.57 3.47-.38-.33-.72-.63-1.23-1.08-.06 2.45-2.69 3.08-3.35 5.1h-5.19c.81 2.5-.66 4.04-2.13 4.62-1.8.72-1.76 2.31-2.68 3.38-.95.22-1.55.79-1.9 1.88h4.36c2.55-2.18 5.03-4.29 7.42-6.32-.77-1.86-.77-1.86.12-3.56h3.56c1.78-2.23 4.45-3.77 5.94-6.81h4.42c.04.76.07 1.4.12 2.42-3.4.47-3.84 4.11-6.13 5.98-2.28 1.86-5.39 2.96-5.66 5.38-.5 2.02 1.08 2.11.74 3.12-1.57 1.68-1.57 1.68-3.83 1.58.23-.46.46-.91.69-1.35-1.3-.91-1.8.22-2.71 1-.5 1.57-.2 3.2.87 4.74-.38 1.36-1.79 1.85-2.4 2.91-.8.08-1.48.11-1.76-.85-1.27.69-2.67.85-3.24 1.65l2.54 2.54c-.22.23-.45.46-.67.68h3c1.21-.67-.16-2.28 1.14-3.02.21.6.41 1.18.67 1.93 3.48-.22 5.96-2.93 9.48-3.64.67.4 1.28 1.26 1.48 2.83l1.22-2.09c2.48 0 4.12.03 5.75-.02.52-.02.9-.35.79-.98 2.39-.38 4.87.74 7.23-.67 1.94-1.16 4.32.2 6.54-1.16 1.44-.88 3.87-.17 5.73-.17.92.79.22 1.7.57 2.36-.73 1.19-1.93.26-2.89.92-.05.33-.03.83-.22 1.23s-.59.69-.89 1.03c1.34 1.47 1.96-.46 2.04-.49 2.27-.16 1.64 1.14 2.13 1.65.57.6 1.17 1.18 1.79 1.79-1.66 1.63-3.32 3.25-5.01 4.91 1.08 1.19 2.52.2 3.66.73.71.68.17 1.56.34 2.29.37.77 1.19.41 1.73.78.83.72-.31 1.98.86 2.83 2.01-.22 3.47-1.66 4.98-2.97 2.73 1.37.05 5.46 3.57 6.6-2.06.36-4.04.09-5.31 1.43-1.25-.48-.29-2.35-2.41-2.04-.69 1.01-.25 2.85-1.13 3.85-.92.26-1.81-.38-2.19.68.69.67 1.33.58 2.19-.68.89.08 2.05.08 3.34.08.84 1.5.11 3.12.42 4.47l-1.52 1.52c-.26-1.48-2.33-.24-2.51-1.99.48.08.79-.14.89-.59.02-.08-.22-.31-.29-.29-.46.1-.68.41-.59.89-1.91.02-3.84.2-5.26-1.15-.95.66-.71 1.36-.74 1.99-.03.63-.01 1.26-.01 1.8 2.14.91 3.88.15 5.29-.81 1.13.97.43 1.88.8 2.57-2.98 2.5-6.54 1.24-9.63 1.7-.65.47-.4.98-.43 1.55.56.2 1.14.4 1.73.6.37.63-.42.68-.55 1.11.03.79 1.39 1.3.58 2.37-.89.54-1.89.25-2.84.25-.91 0-1.09 1.31-2.45.9-.98-1.27-1.53-3.51-4.01-3.97-.9 1.31-.12 3.74-2.39 4.37-.26-.92.38-1.81-.68-2.19-.67.69-.58 1.33.68 2.19-.2 1.1 1.11.46 1.71 1.03v4.5c-2.27 1.14-1.21-2.25-3.28-2-1.08.13-2.11-1.85-1.33-3.63-1.2-.12-1.99-.19-2.8-.27-.53-.54-.57-1.1-.08-1.73.47.22.93.45 1.55.75v-3.56c-.43-.43-2.39.99-3.4 2.6l-.74-.74c-.85.04-1.13.86-1.7 1.3.7 1.02 1.91.05 2.88.84v6.92c.65 1.08 2.91.33 1.89 2.43-.62.63-1.5.1-2.25.28-.73-.36-.37-1.18-.75-1.72-3.82 2.34-6-2-9.2-2.27-.99.33-.22 1.61-1.09 2h-1.5c.08-.48-.14-.79-.59-.89-.08-.02-.31.22-.29.29.1.46.41.68.89.59-.2 2.05-2.15.32-2.93 1.37-.71.96-1.55 2.04-3.07 1.63v-2c.69.03 1.03-.31 1-1 .69.03 1.03-.31 1-1h1c-.08.48.14.79.59.89.08.02.31-.22.29-.29-.1-.46-.41-.68-.89-.59-.11-.28-.18-.76-.34-.79-.6-.14-.7.31-.66.79-.69-.03-1.03.31-1 1-.69-.03-1.03.31-1 1-.61-.11-.92.26-.98.76-.08.67.04 1.31.98 1.24v2.49c-1.82 2.55-6.39 2.14-7.05 6.11l2.54-2.54c1.72.02 2.54-.3 3.31.23-.33.8-.66 1.59-.98 2.39-.7.65-1.58.13-2.36.35-.55.49-.63 1.06-.24 1.7.92.24 1.35-1.43 2.44-.58.54.3.26.86.36 1.33-1.08 1.14-2.55.06-3.86.78-.26 1.15-.3 2.38.02 3.48 1.38.87 1.78-.71 2.71-.75 1.1-.28 1.34 1.63 2.62.98.54 1.09 1.08 2.19 1.57 3.16-.29.68-.68.76-1.18.9-1.33.38-1.94-1.08-3.34-1.03-1.12-.02-.12 1.46-.87 1.82-1.3.45-1.91.05-1.63-1.46-1.61-.73-3.21-.14-4.67-.41-.65 1.35-.35 2.49-.34 3.6 2.41.76 4.72 1.96 7.21 1.39.91.38.62 1.17.98 1.92 2.63-2.22 6.27.75 8.61-2.01 1.17.55 1.92 1.1 2.14 2.15h-3.97c2.67 1.55 2.98 3.5 4.06 4.77-.9 2.2-1.89 4-3.66 5.2h-4.96l-2.79-2.79c-1.58.61-3.13 1.21-4.76 1.75-1.23-.99-1.23-.99-2.89-.06 1.13 0 2.05 0 2.89.06 1.59.94 2.14 1.12 3.78 1.27.1.12.27.25.28.38.03.32-.02.65-.04.98-1.1 1.16-1.72.14-2.66-.76-1.6 1.62-3.75 1.12-5.81 1.22-1 .93.18 2.75-1.41 3.4 1.33 2.54 4.76 2.74 5.94 5.43.02 1.17-.99 1.55-1.68 2.14-.81.18-1.24-.35-1.68-.83-2.32-2.56-5.01-3.93-8.82-2.75 1.29 1.01 2.62.34 3.77.7 1.38 1.66-.53 2.91-.71 4.3l1.53 1.5c.84-.21.45-1.01.87-1.82 3.89-.9 6.28 4.31 10.13 2.77 2.12 2.71 2.13 2.71.11 5.13h-5.89c-.82.36-.5 1.15-.8 1.7-1.05.72-2.25.02-3.33.44-.34-2.5-3.99-2.22-3.92-5.09-.54 1.77-1.12 3.43-2.03 4.92-.77.28-1.66-.32-2.55.53 0 .47-.15 1.16.04 1.74.2.58.73 1.04 1.22 1.68 1.04-.67 2.11-1.24 3.39-.75.68.87.12 1.92.38 2.83.21.73.68 1.38.97 1.94-.02 1.66-2.65 1.82-1.87 3.72 1.39 1.7 2.26-1.85 3.84-.26 1.01 1.02 2.38-1.23 3.73-.11.75 2.78 1.72 5.59 2.24 8.48.53 2.93-1.37 5.38-2.07 7.98-4.86 2.03-9.57 4.19-14.38-.09-1.2-1.36-1.67-3.31-1.58-5.28-1.42-.91-1.88.26-2.59.84-.41.24-.4.48.06.71 1.46.71 1.31 2.55 2.25 3.3 1.29 5.23 1.33 10.45 3.23 15.4.78 2.03.13 4.61.13 7.22-1.52.1-2.97.61-4.07 1.27-.88-.65-1.53-1.12-2.08-1.53 1.67-3.41 1.74-4.07 1.16-9.06-.06-.49-.01-1-.01-1.5v-1.48c-.64-.81-1.53-.44-2.31-.49-.8-.05-1.6-.01-2.55-.01v-3.69c.48-.17 1.05-.38 1.65-.59.93-2.22-1.55-3.66-.97-5.54-1.65-.75-2.07 1.54-3.47.7-1.22-1.87.15-3.54 1.11-4.64 1.33-1.52 1.89-2.97 1.3-5.19 1.89.11 3.49-.67 4.72.86 2.06-1 1.43-3.03 1.51-4.62 1.44-.39 2.55-.61 3.35.55.81-.38 1.61-.76 2.53-1.19.02-.35.05-.81.09-1.37-2.89-.71-5.39-.26-7.57 1.8-.76.72-.85.63-3.05.78-.7-.7-.17-1.58-.37-2.43-1.22-.52-2.03 1.76-3.42.65-1.47-1.57-2.95-3.14-4.56-4.86v-2.21h3.35c.91.91 2.24 2.26 3.87 3.9-.83-3.33-1.61-6.44-2.39-9.59-3.48-1.15-6.98-2.3-10.27-3.39-2.95.9-4.86 2.77-6.92 4.46-.51 1.22-1.78.02-2.5.97.12.97.93.52 1.42.71 1.37 5.22 1.37 5.22.44 8.94-.69-.03-1.03.31-1 1h-5.02v4.56c-.99.51-1.78.93-2.59 1.31-.05.02-.23-.22-.34-.33-.34-1.17.5-2.59-.56-3.5-1.36-.37-1.88 1.71-3.21.73-.52-.74-.21-1.56-.21-2.35 2.21-.56 3.31-2.53 5.06-4.01V236c2.23-.09 2.77-2.62 4.94-3.06-2.35 1.23-3.85-1.54-5.88-.97-.23.83 1.06.84.47 1.72-1.2-.34-2.83 1.22-3.94-.81.92-.26 1.81.38 2.19-.68-.69-.67-1.33-.58-2.19.68-.34.05-1.07-.4-1.58.26.04 1.13 1.84 1.15 1.53 2.48-.81.55-2.01-.38-2.69.74v3c-2.27 1.85-3.74 4.29-5.43 7.16 2.94.27 4.01 2.21 4.97 4.28 1.42-.51 2.41.57 3.58.98 1.56.54 2.46-1.6 4.09-1.02.57.2 1.33-.16 1.9.69-.52 2.18-2.96 3.08-4.46 5.75 3.81-1.59 5.82-4.88 9.57-4.73-.88-1.91-1.22-3.65-3.15-4.12.03-.79-.32-1.62.23-2.35.81-.61 2.01.33 2.71-.7v-1.5c.69.03 1.03-.31 1-1 1.75-.04 3.61.44 4.83-1.06 1.29.31 1.74 1.29 2.51 1.9.98-.69 2.13-1.04 3.17-1.68.81-.5 2.21-.44 3.28.12 1.42 4.28-3.19 3.01-4.76 5.35.15 1.9-.25 4.22-2.27 6.1-1.16.59-2.34.67-3.21-.78l-1.78 1.78c1.91.22 3.74.37 4.46 2.18 1.28.07 2.4.14 3.51.2.14.59.25 1.04.35 1.5 1.58-.33 3.13-1.17 4.74-.31.89 2.72-2.41 2-2.89 3.68-.51 1.82-2.39 2.62-3.4 4.01h-3.08l-2.84-2.84c-1.49.35-1.42 2.75-2.11 2.68-2.27-.23-.87 2.51-2.81 2.29 2.14 1.77.69 3.98 1.57 5.78h2.31c1.27-1.36-.63-1.96-.7-2.3.16-1.65 1.13-1.91 1.56-2.59 1.07.68.13 1.88.72 2.69 1.07-.78 1.53-1.9 1.87-3.18 1.81-1.39 3.94-1.8 6.55-1.4.89.34 1.22 2.16 2.59 1.94 3.83 2.92.32 6.27.8 9.42-1.56.68-2.91 1.92-4.83 1.55-1.54-.29-3.09.32-4.68-.84-1.3-.95-3.61.67-4.99-1.16-.28 1.54-.28 1.54 1.34 2.16.15 3.47.99 6.79 4.95 8.13.36 1.34.6 2.65-1.13 3.42-1.43.48-2.94.51-4.29-.59-.35.36-.71.71-1.27 1.27 2.42 2.16-.38 4.97.85 7.7-.31 2.3-2.49 3.62-4.07 5.56 2.28-.23 4.35-1.09 6.64-.52 1.33 1.65 1.33 1.65 1.47 4.18-1.43 1.25-3.29 1.54-5.11 2.1 1.24.85 1.24 1.97 1 3.42-2.46.74-4.27-1.21-6.43-1.78-2-.53-2.53-3.5-5.23-2.88.71 2.74 3.5 3.68 5.19 5.37 1.77 1.77 3.9 3.7 6.49 4.61v3.46c-.8.76-1.67.13-2.42.46-.81-3.08-3.21-3.71-6.05-4.2-1.44-1.33-3.2-2.72-4-4.82H161c-.16.33-.36.59-.41.89-.67 3.88 2.36 6.12 4.63 7.84 2.12 1.61 3.73 3.31 5.26 5.73-.66 1.11-2.62 1.88-1.89 3.8.19.85.93.67 1.53.74.77.86.52 1.79.19 2.71-2.63 1.54-3.35-2.15-5.44-1.92-1.09-2.52-2.25-4.52-4.8-6.15-3.21-2.04-5.97-5.08-8.01-9.15-1.26 3.8.28 6.8 1.87 9.09 3.05 4.39 5.57 9.09 8.54 13 .39 1.82-.48 2.59-1.48 3.36h-2.77c-3.23-4.45-6.57-8.76-7.7-14.32-.52-2.56-1.65-4.97-3.57-6.78-2.6.72-3.08 3.01-4.42 4.83.79 3.21-1.4 6.36-.98 9.81.38 3.19-.74 6.5.98 9.6.71 1.27-.99 2.67-.4 3.82.68 1.32.27 2.57.41 3.83.28 2.37-.66 4.91 1.01 7.09.08.1-.03.34.02.49.67 2.2-1.1 3.95-1.06 6.09.04 2.11.56 4.31-.32 6.34-.25.58-.7 1.02-.64 1.74.5 6.4-1.44 12.65-1.07 19.08.4 7.02-1.36 13.99-1.06 21.08.13 2.95 1.55 5.57 1.2 8.58-.32 2.8-.57 5.77.04 8.46 1.04 4.54 2.23 8.99 1.87 13.44-3 4.98-7.64 5.23-12.58 4.72l-3.13-3.13c-.86-2.76-1.94-5.62-1.2-8.45 1.19-4.52.27-9.16 1.1-13.57.71-3.74.76-7.4.79-11.12.01-1.39.65-2.99-.89-4.14-.25-.18-.23-1.03-.04-1.43 1.96-4.08.85-8.41.91-12.6.17-12.49.11-24.99.01-37.49-.01-1.86.9-3.99-.94-5.6-.08-.07 0-.32-.01-.49-.17-1.8 1.57-3.1 1.08-5.1-.41-1.66-1.5-3.12-1.17-5.08.26-1.57.89-3.07 1.3-4.51.51-1.8-.7-3.21-.18-4.72.62-1.8-1.18-2.87-1.1-4.6.12-2.55-.54-5.04-2.48-6.92-.58-.57-.46-1.21-.42-1.82.06-.82-.58-1.12-.98-1.6-.33-.39-.71-.68-1.72-.34-.39 1.24-.45 2.99-1.51 4.34-.59.7-1.84.4-2.3 1.46-.57-.59-1.09-1.26-2.07-1.05-.85-.83-.74-2.24-.36-2.76 1.98-2.7.3-4.67-1.03-6.76 1.12-.62.95-1.66.95-2.95-1.87-1.85-4.19-3.75-4.03-7.09-1.2-.63-2.45-.45-3.71-.22-.47 1.16-.24 2.29-.18 3.41l2.84 2.84c-.59 1.39-2.25-.17-2.9 1.12.65.31 1.33.62 2.09.98-.28 1.91-1.89 2.53-2.57 3.34-1.19.28-1.38-.3-1.79-.6-1.26-.06-1.4 1.57-2.67 1.76-.64.12-1.02-.47-1.51-.98-.35.3-.7.6-1.05.91-1.54-1.03.68-2.28.2-2.59-2.07-1.32 2.1-1.78.01-2.9-.78-1.09-2.27.01-3.57-.75v-2.29c1.84-.45 2.18-2.19 3-3.97-.88-.58-1.86-1.22-3.58-2.35h-5.15c-1.3.9-1.42 2.45-2.33 3.56.59.23 1.17.45 1.82.7v2.43l-28.12-3.86z" class="st0"/><g id="splatter"><path d="M97.04 44.89c-.08-.02-.31.22-.29.29.1.46.41.68.89.59.07-.47-.15-.77-.6-.88zM112.64 58.28c.32.47.66.47.98 0-.32-.46-.65-.46-.98 0zM28.63 126.78c.69.03 1.03-.31 1-1-.69-.02-1.02.31-1 1zM40.04 121.89c-.08-.02-.31.22-.29.29.1.46.41.68.89.59.07-.47-.15-.77-.6-.88zM37.3 121.99c-.6-.14-.7.31-.66.79h1c-.12-.27-.18-.75-.34-.79zM36.63 118.79c-.48-.09-.78.13-.89.59-.02.08.22.31.29.29.46-.1.68-.4.6-.88zM12.63 142.78v1h1c.03-.69-.31-1.02-1-1zM3.84 154.12c-.14.6.31.7.79.66v-1c-.27.11-.75.18-.79.34zM2.13 155.79c-.47.33-.47.66 0 .99.47-.33.47-.66 0-.99zM3.63 159.78h1v-1c-.69-.02-1.02.31-1 1zM4.63 153.78c.69.03 1.03-.31 1-1-.69-.02-1.02.31-1 1zM2.63 151.78c.11.28.17.76.34.79.6.14.7-.31.66-.79h-1zM1.84 151.12c-.14.6.31.7.79.66v-1c-.27.11-.75.18-.79.34zM153.64 53.79c-.09.48.14.78.59.89.08.02.31-.22.29-.29-.1-.47-.4-.69-.88-.6zM71.64 37.28c.32.47.66.47.98 0-.32-.46-.65-.46-.98 0zM72.13 34.78c.47-.33.47-.66 0-.99-.46.33-.46.66 0 .99zM74.04 35.89c-.08-.02-.31.22-.29.29.1.46.41.68.89.59.07-.47-.15-.77-.6-.88zM75.63 31.78v1h1c.03-.69-.31-1.02-1-1zM74.97 33.58c.6.14.7-.31.66-.79h-1c.11.27.18.75.34.79zM49.3 104.99c-.6-.14-.7.31-.66.79h1c-.12-.27-.18-.75-.34-.79zM67.63 50.78c-.03-.69.31-1.03 1-1v-2h-2c.38.99-.92 2.53 1 3zM46.63 114.78v-1h-1c-.02.7.31 1.03 1 1zM183.01 45.31c.43-.22 1.1-.55 2.33-1.17-2.64-.15-2.64-.15-2.33 1.17zM251.04 116.86c-.67.69-.58 1.33.76 2.47-.35-1.19.29-2.08-.76-2.47zM236.13 177.77c-.73.68-.73 1.34 0 2.02.73-.67.73-1.34 0-2.02zM240.13 205.79c.73-.68.73-1.34 0-2.02-.72.68-.72 1.35 0 2.02zM264.62 115.28c.68.73 1.34.73 2.02 0-.67-.72-1.34-.72-2.02 0zM236.47 196.24c.34 1.19-.29 2.08.76 2.47.67-.7.58-1.33-.76-2.47zM26.97 123.9c-.5.62-.53 1.17.18 1.94.62-.91.93-1.55-.18-1.94zM19.66 263.37c.27.44-.6 1.53.42 1.33.81-.16.77-1.15.15-1.84-.21.18-.59.47-.57.51zM11.87 141.8c-.67-.08-1.31.04-1.24.98h2c.12-.61-.26-.92-.76-.98zM46.28 80.66c.54-.59.51-1.14-.15-1.96-.64.91-.94 1.55.15 1.96z" class="st0"/><path d="M18.74 265.38c-.02.08.22.31.29.29.46-.1.68-.41.59-.89-.47-.08-.77.14-.88.6zM20.97 261.58c.6.14.7-.31.66-.79h-1c.11.27.18.75.34.79zM187.04 235.89c-.08-.02-.31.22-.29.29.1.46.41.68.89.59.07-.47-.15-.77-.6-.88zM94.23 37.89c-.46.1-.68.41-.59.89.48.09.78-.13.89-.59.01-.08-.22-.32-.3-.3zM44.04 95.89c-.08-.02-.31.22-.29.29.1.46.41.68.89.59.07-.47-.15-.77-.6-.88zM51.74 87.38c-.02.08.22.31.29.29.46-.1.68-.41.59-.89-.47-.08-.77.14-.88.6zM113.64 50.28c.32.47.66.47.98 0-.32-.46-.65-.46-.98 0zM242.15 91.78h1.02c.75-1 .77-2-.02-3.01-.49.08-1.03-.21-1.51.64.38.59-.56 1.62.51 2.37zM237.27 172.94c-.89-.11-1.84-.55-2.64.35.07.46-.2 1 .48 1.42h2.59c-.13-.88.14-1.42-.43-1.77zM256.63 98.24v-1.33h-2.7c-.44.73-.43 1.29.13 1.8.88-.03 1.87.5 2.57-.47zM91.63 23.78c-.33.67-.67 1.33-1 2 .6.12 1.3-.28 1.81.3.19.58.37 1.15.76 2.33.67-2.44.69-3.96-1.57-4.63zM275.76 157.07c.48.94.94 1.83 1.37 2.69 1.44.09 1.48-.55 1.5-1.23-.7-.95-1.2-2.33-2.87-1.46zM206.8 52.53c.8.39 1.36.33 1.83-.24.15-1.28-.7-1.85-1.83-2.55v2.79zM17.29 98.63c.54-.87.49-1.75-.03-2.78-.9.6-1.76 1.15-1.63 2.43.46.57 1.02.64 1.66.35zM156.64 22.29c-.04.65-.15 1.33.76 1.49.97-.59.97-.59 1.87-1.87-.91-.03-1.88-.56-2.63.38zM101.85 37.77c-1.14-.17-1.46 1-2.24 1.52 1.02.78 2.02.77 2.94.1.18-.76.18-1.37-.7-1.62zM118.05 25.66c.57.26 1.14.2 1.58-.4v-.99c-.68-.71-1.34-.73-2.02.05.12.43-.21.99.44 1.34zM118.74 59.92c-.05.66-.1 1.26-.15 1.9.64-.05 1.24-.1 1.73-.13.45-.78.45-1.34-.16-1.88-.38.03-.82.06-1.42.11zM246.22 102.76c-.54.08-1.08-.19-1.51.49v1.51c2.24.1 2.26-.73 1.51-2zM185.11 30.78c-.46.07-1-.21-1.35.4-.27.6-.21 1.16.39 1.61h.99c.72-.68.74-1.35-.03-2.01zM236.35 116.75c-.67.1-1.21-.17-1.57.42-.29.59-.21 1.15.36 1.62 1.27.11 1.79-.38 1.21-2.04zM257.11 85.78c-.46.07-1-.21-1.34.39-.28.61-.22 1.17.38 1.62h.99c.72-.68.74-1.35-.03-2.01zM185.11 301.78c-.46.07-1-.21-1.34.39-.44 1.24.09 1.73 1.38 1.61.71-.67.73-1.34-.04-2zM185.24 290.92c-1.24-.44-1.73.09-1.61 1.38.67.71 1.34.73 2-.03-.07-.46.22-1.01-.39-1.35zM146.81 17.79c-.38-3.09 1.97-5.34.44-7.9-1.48-.5-1.9.78-2.57 1.48v4.95c.52.52.99.99 2.29 2.31-.03-.1-.04-.2-.07-.3.24.49.49.97.73 1.46 1.85-.7.87-1.89.62-2.92-.63.12-.77.93-1.44.92zM203.22 51.91c-.56-.26-1.12-.2-1.53.3-.27 1.45.35 1.83 1.98 1.3-.1-.68.17-1.22-.45-1.6zM30.34 103.19c-1.51-.32-1.51-.32-1.32 2.11.63-1 1.02-1.61 1.32-2.11zM94.63 44.78v3h1c-.38-.98.93-2.53-1-3zM117.63 37.78c.98-.38 2.53.93 3-1-.98.38-2.53-.92-3 1zM73.71 15.64v2.29c.87-.16 1.31-.24 1.78-.33-.28-.97-.85-1.4-1.78-1.96zM92.77 33.95c.46.74.85 1.35 1.33 2.13 1.14-2.67-.06-2.35-1.33-2.13zM275 127.66c1.19.08 2.45.45 3.7-.35-.25-2.01-1.46-2.71-3.31-2.51-.27.03-.51.32-.76.49.17.77-.32 1.63.37 2.37zM193.01 56.81c-.39 1.32-1.87.56-2.38 1.48.97.48.85 1.59 1.35 2.36.9.08 1.85.54 2.62-.33.21-1.38.02-2.58-1.59-3.51zM22.8 99v3.81c1.64.22 2.47-.78 2.91-2.33-.83-.79-1.24-2.14-2.91-1.48zM151.59 16.91c.57.98 1.04 2.2 2.89 1.7.09-1.31.56-2.64-.49-4.1-1.13.56-2.07 1.03-2.4 2.4zM243.04 175.7H246c-.66-1.18.05-2.07-.69-2.76-.93-.09-1.89-.57-2.75.44.37.67-.34 1.56.48 2.32zM242.58 109.31c.42.68-.48 1.69.55 2.47.77-.17 1.63.32 2.41-.4v-2.69c-1.18.26-2.03-.23-2.96.62zM263.23 204.86c.66-.37 1.56.34 2.32-.48v-2.96c-1.18.66-2.07-.05-2.76.69-.1.93-.58 1.89.44 2.75zM44.62 74.28c.19.79-.34 1.66.36 2.36.91.06 1.89.59 2.65-.38v-2.01c-1.01-.75-2.01-.78-3.01.03zM109.56 39.34c.26 1.49.89 2.55 2.9 2.4v-2.75c-1.05-.19-1.98-.56-2.9.35zM185.68 48.34c.84.55 1.23 2.08 2.82 1.14v-3.6c-1.33.41-1.93 1.63-2.82 2.46zM31.9 71.78c-1.34.01-1.92.89-2.44 2.42 1.17.88 2.17.88 3.18.12-.33-.85.7-2.05-.74-2.54zM194.66 46.42c-.21 1.07.68 1.42 1.14 2.04.37.5.88.26 1.52.35.41-.85.41-1.75.04-3.13-1.04.43-2.24-.61-2.7.74zM249.96 77.62c.91.12 1.86.54 2.76-.43-.29-1.23-.72-2.35-2.67-2.42-.59 1.07-.59 1.96-.09 2.85zM194.04 270.83c-.61.98-.56 1.87-.09 2.77.91.16 1.84.54 2.79-.42-.37-1.37-.88-2.56-2.7-2.35zM188.67 253.39c1.05.54 1.93.59 2.89 0v-2.85c-1.94.5-3.1 1.06-2.89 2.85zM264.54 188.44v-1.75c-1.31.32-2.54-.31-3.81.42v1.75c1.31-.31 2.54.32 3.81-.42zM279.81 161.1c-.16.91-.54 1.84.48 2.85 1.24-.49 2.54-.91 2.28-2.77-.97-.6-1.86-.55-2.76-.08zM236.73 63.42c.86.68 1.3 1.85 2.56 1.21.65-.88.21-1.9.34-2.84-1.43-.23-2.28.45-2.9 1.63zM12.63 17.38c-.05-.53.2-1.05-.33-1.42-1.65-.79-2.68.18-3.89 1.6 1.55.18 2.87.54 4.22-.18zM213.43 58.8c1.31-.61 2.28-1.06 3.2-1.49v-2.03c-1.91.91-1.91.91-3.2 3.52zM21.29 95.93c-1.45-.64-1.84.75-2.77 1.45 1.02.37 1.32 2.04 3.14 1-.37-.68.39-1.57-.37-2.45zM53.66 81.31c.07-.54 1.27-.54.63-1.43h-1.75c.34 1.31-.29 2.52.39 3.72.66.31 1.23.26 1.69-.31.32-.98-.45-1.44-.96-1.98z" class="st0"/><path d="M268.09 199.78h-1.22c.2-.06.4-.12.62-.16-2.13-1.61-1.85-3.75-1.88-5.69-3.22-.33-5.91-1.04-7.41-2.97-2.52-.53-3.17.69-3.67 2.02 1.89 3.08 5.05 3.23 7.87 4.07.75 1.13-.4 2.62.07 3.09 1.84 1.23 2.73.21 4.3-.32v2.67c.73.44 1.29.43 1.8-.13-.04-.88.49-1.87-.48-2.58zM238.72 197.16v1.24c.97.56 1.86.56 2.83 0v-1.24c-.97-.56-1.86-.56-2.83 0zM183.47 56.18c-1.35-1.82-2.96-1.45-4.48-1.25-2.67 2.4-2.85 6.11-5.16 8.75 1.34-.32 2.67.74 3.8-.39v-2.51c-.48.09-.78-.14-.89-.59-.02-.08.22-.31.29-.29.46.1.68.41.59.89 1.6-.2.49 1.73 1.32 1.9 1.67-.85 3.17-1.62 4.52-2.31.01-1.55.01-3 .01-4.2zM211.28 61.63c.41-.85.81-1.66 1.19-2.45-1.16-.3-.29-2.25-1.92-2.43-2.14.45-1.6 2.7-2.29 4.04h-2.14l-1.51 1.51c.2 1.53-.66 3.49 1.63 4.32.34-.27.67-.52.97-.76l1.86 1.86c1.5.23 2.81.09 3.39-1.61-1.26-.27-.3-1.89-1.36-2.26-.35.3-.69.59-1 .85-.53-.51-1.01-.96-1.46-1.44-.08-.09-.01-.32-.01-1 .7-.97 1.87-.11 2.65-.63zM223.09 215.72c-.63.89-.6 1.46-.06 1.97.8.07 1.58.14 2.29.2.48.87-.72.9-.65 1.12.96 1.51 1.19 3.06 2.28 3.6 2.09.72 2.98-.6 4.09-1.77 2.48.81 2.68.38 2.17-4.05-3.43-.19-6.96.63-10.12-1.07zM250.72 88.2c.76 1.02.77 2.87.95 2.91 1.81.4 1.87 2.29 3 3.16.58.45 1.32.67 1.97.99v1.52c.95-.13 1.97.31 2.81-.3.98-2.04-1.2-1.36-1.72-2.11-.07-1.12-.13-2.24-.18-3.07-1.04-1.67-3.17-1.44-3.82-3.11.44-.46 1.02-.83.92-1.62-.08-.63.16-1.33-.52-1.79h-2.49c-.53 1.11-1.74 2.32-.92 3.42zM11.41 133.81c-1.93-.07-3.87.06-5.77.1v3.88h8.68c.37-1.35 2.47-1.57 2.31-3.71-1.66-.67-3.48-.21-5.22-.27zM226.4 245.85c-.86.87-1.85 1.86-2.77 2.79v2.94c1.73.06 2.66 1.76 4.62 1.07.84-.84 1.81-2.11 3.73-2.19-.74-1.51-1.28-2.6-1.82-3.69-1.38.24-2.17-1.49-3.76-.92zM228.59 73.12c-.58-.21-1.16-.41-1.73-.61-.67-.78.31-1.99-.88-2.83-1.48.4-2.31 1.02-2.37 2.94 0 .07 1.09.13.7 1.2-1.39-.61-1.79.8-2.74 1.51.34.7-.32 1.57.47 2.38 2.69.56 4.35-1.8 6.56-2.37-.01-.84-.01-1.49-.01-2.22zM259.63 108.01c.04-.15.01-.33.01-.67-.48-.46-1.05-1.01-1.59-1.52h-4.94l-1.39 1.39c.24.87 1.09.39 1.93 1-.06 1.25-.15 2.35 1.03 3.16.94.64 1.79.46 3.01.11-.77-1.89 1.57-2.05 1.94-3.47zM117.21 3.76c-.54.05-.86.08-1.32.13-.36 5.03-2.24 9.78-2.87 14.79l1.11 1.11c.23-1.39 1.57-2.26 1.51-3.79-.06-1.41-.06-2.74.88-4.12.72-1.07-.3-2.79.63-4.19.83-1.23.75-2.64.06-3.93zM224.47 232.35c-.55-1.88-2-1.58-3.36-1.57-.26 1.37-1.68 2.3-1.49 3.73-.03 1.32 1.09 1.68 1.69 2.41.52.63.02 2.18 1.63 1.85 1.9-1.85 1.88-4.19 1.53-6.42zM261.99 101.63c-.59-.58-1.17-1.17-1.73-1.73h-4.29c-.54.76-1.51 1.06-1.25 2.58.32.23.98.7 1.78 1.27h6.66l1.43-1.43c-.64-1.11-1.82-.16-2.6-.69zM218.76 69.82c.93 1.66.93 1.66-.06 2.89.27.74.6 1.41.94 2.08 1.53-1.63 2.13-3.55 1.99-5.68-.83-.29-1.41-.49-1.47-.51-1.12-1.37.36-2.93-1.18-3.82-1.29-.08-1.67.96-2.29 1.56v5.04c.74.39.94 1.45 2.02 1.33.05-.84.05-1.76.05-2.89zM232.16 184.77c-.6.04-1.37.07-2.14.15-.13.01-.23.22-.34.32-.25 1.4-.07 2.77 1.32 3.33 1.22.49 2.39.8 2.67 2.43-.28.42-.61.9-.93 1.39.71.6 1.17 1.63 2.41 1.39.43-.45.89-.92 1.35-1.4-.31-.47-.62-.96-.78-1.19-.46-1.41 2-1.85.6-3.21-1.14-.68-2.6.43-3.64-.62-.25-.8.31-1.67-.52-2.59zM250.13 84.78h1.5c-.12-.94.29-1.94-.51-3.1-1.59.64-3.28 1.51-5.01 1.05-2.41 3.41-1.98 4.41 1.92 5.04 1.15-.68 1.67-1.81 2.1-2.99zM178.13 29.78h1.5c-.13-.94.29-1.94-.51-3.1-1.59.64-3.28 1.51-5.01 1.05-2.41 3.41-1.98 4.41 1.92 5.04 1.15-.68 1.66-1.81 2.1-2.99zM261.24 110.79c1.92 0 1.9-1.8 2.79-2.74.85-.91 2.41-1.16 3.6-1.68v-2.82c.01.07.01.15 0 .23.6-.11 1.27.26 2.03-.53-.43-.62.49-1.57-.42-2.37h-2.38c-.68 1.34.36 1.74.69 2.4-2.45 1.34-4.4 3.15-7.1 4.02.73 1.06-.61 2.49.79 3.49zM240.76 181.16c-.02.9-.58 1.88.59 2.77 2.06-1.08 5.22-.23 6.59-3.74-2.94-.96-5.09-.24-7.18.97zM203.27 55.88c-1.23-.02-2.51-.49-3.48.24v4.42c1.82.74 2.9-.09 3.84-1.34-.15-1.08.36-2.24-.36-3.32zM5.18 126.78c-.51.94-1.02 1.89-1.93 3.57 1.79.32 1.88 2.88 4.24 2.3v-4.58c-.71-.33-1.04-1.59-2.31-1.29zM232.64 73.28c.87 1.06 1.83 1.95 3.49 1.46.86-1.08 2.6-1.73 2.5-3.73h-4.98c.23 1.18-.41 1.72-1.01 2.27zM181.08 307.77c-.81 1.15-.38 2.42-.34 3.75.76.24.91 1.35 2.32 1.24.23-.43.6-1.15.98-1.87.17.16.33.33.5.49v-3.26c-1.16-.62-2.31-.22-3.46-.35zM33.25 20.88h-3.3c-.21 3.03-.21 3.03 1.12 4.86l2.56-2.68c-.17-.67.38-1.55-.38-2.18zM231.72 77.3c-2.11-1.39-3.38.42-4.98.84-.05 1.23-.48 2.5.35 3.64h1.34c1.13-1.56 1.54-3.44 3.29-4.48zM221.33 209.74c-1.1.3-2.32-.35-3.52.34-.53 1.83-.02 3.1 1.83 3.77 1.81-.71 2.37-1.96 1.69-4.11zM232.11 207.94c1 2.01 1.75 3.2 3.51 2.82 1.34-.29 2.28-1.05 1.87-2.82h-5.38zM16.1 119.82l-1.36 1.36v2.33c2.13.77 3.3-.07 4.13-2.21-.96-.54-2.15-.58-2.77-1.48zM230.04 229.69c1.3-.67 1.6-1.75 1.64-3.16.05-1.39-.73-2.01-2.03-2.94.31 1.88-.76 3.16-1.16 4.57.61.59 1.08 1.06 1.55 1.53zM234.63 69.32v-2.16c-1.34-.57-2.67-.59-4.17.08.47.81-.26 1.71.54 2.43 1.22.04 2.5.49 3.63-.35zM9.08 125.81c.84-.74.64-1.5.5-2.06-.21-.85 1.49-.96.54-2.03-.54-.12-.62-1.12-1.5-.94.08.48-.14.79-.59.89-.08.02-.31-.22-.29-.29.1-.46.41-.68.89-.59-.87-2.9-2.21-5.47-5-7 .12.61-.33 1.36.33 1.81.84.57.67 1.39.67 2.19.69-.03 1.03.31 1 1 .48-.08.78.14.89.59.02.08-.22.31-.29.29-.46-.1-.68-.41-.59-.89-.69.02-1.03-.31-1-1-1.06-.13-1.7-.92-1.96-1.76-.5-1.64-1.63-2.54-3.04-3.24v3c.63-.16.98.34 1.18.72 2.03 3.79 5.55 6.17 8.26 9.31z" class="st0"/><path d="M5.63 112.17c-.18-.72.39-1.62-.37-2.27-1.26-.36-2.37-.03-3.32.75-.48-.67-.11-1.49-.84-1.86H-.37v2c1.82.35 2.18 2.65 4 3-.19-1.63 1.78-.49 2-1.62zM278.02 171.58c-1.85-.68-1.01-2.6-1.76-3.74-8.19-.13-8.19-.13-11.56 2.35-.05 1.07-.1 2.19-.15 3.25-.71.25-1.28.46-1.75.63-.54.88.52 2.07-.46 2.48-1.37-.29-1.53-1.99-3.11-1.76-.31.26-.67.58-1 .87-1.25-1.31-3.39-.54-4.5-1.91-2.92.6-3.48 3.35-5.52 5.04 1.22 1.39 2.7 2.29 2.91 4.15h4.34c.18 1.15.22 2.23 1.9 1.73.33-1.64.78-3.35 2.24-4.88-.7 2.06.9 3.27 1.44 4.87 3.05 1.18 3.05 1.18 6.4-.22.69-1.56 1.44-3.05 1.47-4.88 1.97.57 2.98 1.4 2.73 3.21h2.49c.41-.59 1.27-.86 1.29-1.72l-.69-.69c1.57-3.04 3.61-5.63 6.76-7v-2.3c-1.43-.76-2.46.04-3.47.52zM27.48 39.96c-.54-1.66-2.62-.78-3.3-2.09-.21-.42-.66-.72-.49-1.55.57-.64 1.32-1.46 1.58-1.75 1.15-2.14-.56-2.9-.74-4.2-.2-1.4 1.64-1.74 1.11-3.1-.46-1.2.3-2.28.95-3.46-2.57-.18-2.98 2.21-4.47 2.84-2.2-1.59-4.52-2.38-7.18-1.7-.5.7-.09 2.19-1.68 1.83-3.68-6.22-4.13-6.59-8.33-6.81-.59.73-.19 1.57-.26 2.35 6.92 6.92 6.92 6.92 6.51 10.41-1.58.24-3.62-.63-4.35 1.75 1.87 1.23 1.87 1.23 4.22 1.4 1.89 1.25 1.58 3.28 3.47 3.99 1.64.62 3.28.96 4.79.92.47.84.11 1.63.89 1.91 1.16-.57 1.34-1.9 1.7-2.53 1.05.75 1.99 1.43 2.72 1.94.16 2.87.16 2.87 1.57 4.61l1.3-1.3c-.01-1.89-.01-3.67-.01-5.46z" class="st0"/><path d="M270.32 158.02c-.21-.26-.86-.16-1.66-.28v3.86c-3.68-.07-5.36 3.9-8.76 3.25-.76 2.33.52 3.63 1.3 4.88 1.93.14 1.08-1.27 1.3-1.43 2.07-1.02 3.72-1.82 5.38-2.64l1.19 1c.57-1.69 2.06-2.3 3.65-2.93-.17-.45.05-.75.51-.85.08-.02.31.22.29.29-.1.46-.41.68-.8.56.08 1 .08 1.94.08 2.94h2.46c.8-1.39.38-2.49-.58-3.51.68-.51 1.26-1.07.81-2.03-1.83-.83-3.79-1.45-5.17-3.11zM62.9 18.54c.53-1.96 2.02-3.19 1.84-4.38-1.69-1.68-2.96-2.93-4.58-4.54-2.45-.7-2.03 3.49-4.19 3.54-1.73 2.94 1.55 4.22 1.97 6.44.84.54 2.04-.38 2.64.75.32.75-.36 1.66.41 2.3h2.82c-.59-1.46.59-3-.91-4.11z" class="st0"/></g></svg>